{"glyphs":{"0":{"ha":818,"x_min":0,"x_max":0,"o":"m 749 667 l 401 665 b 58 281 213 665 58 493 l 58 -1 l 749 -1 z m 603 144 l 203 144 l 203 281 b 403 521 203 414 293 521 l 603 522 z "},"1":{"ha":458,"x_min":0,"x_max":0,"o":"m 388 0 l 388 667 l 243 667 l 243 0 z m 190 408 l 190 667 l 46 667 l 46 408 z "},"2":{"ha":813,"x_min":0,"x_max":0,"o":"m 753 469 b 561 667 753 578 667 667 l 64 667 l 64 522 l 561 522 b 607 469 588 522 607 499 b 561 417 607 440 588 417 l 64 417 l 64 272 l 561 272 b 753 469 667 272 753 360 z m 213 144 l 213 217 l 67 217 l 67 0 l 754 0 l 754 144 z "},"3":{"ha":799,"x_min":0,"x_max":0,"o":"m 535 144 l 53 144 l 53 0 l 535 0 b 742 243 649 0 742 108 l 596 243 b 535 144 596 186 564 144 z m 596 469 b 550 417 596 440 576 417 l 267 417 l 267 272 l 550 272 b 742 469 656 272 742 360 b 550 667 742 578 656 667 l 53 667 l 53 522 l 550 522 b 596 469 576 522 596 499 z "},"4":{"ha":810,"x_min":0,"x_max":0,"o":"m 594 667 l 594 425 l 249 425 b 192 481 218 425 192 450 l 192 667 l 47 667 l 47 481 b 249 279 47 369 138 279 l 594 279 l 594 0 l 740 0 l 740 667 z "},"5":{"ha":813,"x_min":0,"x_max":0,"o":"m 561 394 l 64 394 l 64 250 l 561 250 b 607 197 588 250 607 226 b 561 144 607 168 588 144 l 64 144 l 64 0 l 561 0 b 753 197 667 0 753 89 b 561 394 753 307 667 394 z m 67 667 l 67 450 l 213 450 l 213 522 l 754 522 l 754 667 z "},"6":{"ha":738,"x_min":0,"x_max":0,"o":"m 313 514 l 311 368 l 536 368 l 536 318 b 394 144 536 222 472 144 l 215 144 l 215 667 l 69 667 l 69 144 l 69 -1 l 394 -1 b 682 318 553 -1 682 142 l 682 511 z "},"7":{"ha":665,"x_min":0,"x_max":0,"o":"m 594 0 l 594 667 l 450 667 l 450 0 z m 190 667 l 46 667 l 46 408 l 190 408 l 190 521 l 379 521 l 379 665 l 190 665 z "},"8":{"ha":875,"x_min":0,"x_max":0,"o":"m 247 522 l 561 522 b 672 411 624 522 672 472 l 818 411 b 561 667 818 551 703 667 l 247 667 b 57 469 143 667 57 578 l 201 469 b 247 522 201 499 222 522 z m 561 393 l 247 393 b 57 196 143 393 57 306 b 247 -1 57 88 143 -1 l 485 -1 l 485 144 l 247 144 b 201 196 222 144 201 167 b 247 249 201 225 222 249 l 561 249 b 672 138 624 249 672 199 l 672 71 l 818 71 l 818 138 b 561 393 818 279 703 393 z "},"9":{"ha":824,"x_min":0,"x_max":0,"o":"m 608 667 l 608 425 l 263 425 b 206 481 232 425 206 450 l 206 522 l 490 522 l 490 667 l 61 667 l 61 481 b 263 279 61 369 151 279 l 608 279 l 608 0 l 754 0 l 754 667 z m 206 206 l 206 242 l 61 242 l 61 206 b 267 -1 61 92 154 -1 l 553 -1 l 553 144 l 267 144 b 206 206 233 144 206 171 z "},"\u0000":{"ha":0,"x_min":0,"x_max":0,"o":""},"\n":{"ha":0,"x_min":0,"x_max":0,"o":""}," ":{"ha":401,"x_min":0,"x_max":0,"o":""},"!":{"ha":276,"x_min":0,"x_max":0,"o":"m 210 0 l 210 135 l 65 135 l 65 0 z m 210 214 l 210 667 l 65 667 l 65 214 z "},"\"":{"ha":663,"x_min":0,"x_max":0,"o":"m 536 672 l 129 672 b 18 582 68 672 18 632 l 18 358 b 129 268 18 308 68 268 l 536 268 b 647 358 597 268 647 308 l 647 582 b 536 672 647 632 597 672 z m 624 358 b 536 288 624 319 585 288 l 129 288 b 42 358 82 288 42 319 l 42 582 b 129 653 42 621 82 653 l 536 653 b 624 582 585 653 624 621 l 624 358 z m 171 508 l 215 508 l 215 529 l 171 529 l 171 544 l 221 544 l 221 565 l 136 565 l 136 481 l 171 481 l 171 508 z m 268 503 l 278 503 l 296 481 l 333 481 l 311 507 b 331 533 324 513 331 521 b 283 565 331 553 313 565 l 232 565 l 232 481 l 268 481 l 268 503 z m 268 543 l 281 543 b 296 533 290 543 296 540 b 281 524 296 528 290 524 l 268 524 l 268 543 z m 432 503 l 379 503 l 379 514 l 424 514 l 424 535 l 379 535 l 379 544 l 431 544 l 431 565 l 344 565 l 344 481 l 432 481 l 432 503 z m 533 503 l 481 503 l 481 514 l 525 514 l 525 535 l 481 535 l 481 544 l 532 544 l 532 565 l 446 565 l 446 481 l 533 481 l 533 503 z m 156 396 l 142 425 l 119 425 l 146 376 l 165 376 l 192 425 l 171 425 l 156 396 z m 214 394 l 240 394 l 240 407 l 214 407 l 214 413 l 243 413 l 243 425 l 193 425 l 193 376 l 244 376 l 244 389 l 214 389 l 214 394 z m 310 407 b 282 425 310 418 300 425 l 253 425 l 253 376 l 274 376 l 274 389 l 279 389 l 289 376 l 311 376 l 299 392 b 310 407 306 394 310 400 z m 281 401 l 274 401 l 274 413 l 281 413 b 289 407 286 413 289 410 b 281 401 289 403 286 401 z m 336 411 b 343 414 336 413 338 414 b 361 410 349 414 354 413 l 367 422 b 343 426 361 425 351 426 b 315 410 325 426 315 419 b 349 390 315 392 349 396 b 342 388 349 389 347 388 b 321 392 335 388 326 389 l 314 379 b 340 375 321 376 331 375 b 369 392 360 375 369 382 b 336 411 369 410 336 404 z m 375 376 l 396 376 l 396 425 l 375 425 l 375 376 z m 439 426 b 404 400 418 426 404 415 b 439 375 404 386 418 375 b 474 400 458 375 474 386 b 439 426 474 415 458 426 z m 439 388 b 425 400 431 388 425 393 b 439 413 425 408 431 413 b 453 400 446 413 453 408 b 439 388 453 393 446 388 z m 521 403 l 497 425 l 481 425 l 481 376 l 501 376 l 501 399 l 524 376 l 542 376 l 542 425 l 521 425 l 521 403 z "},"#":{"ha":663,"x_min":0,"x_max":0,"o":"m 536 672 l 129 672 b 18 582 68 672 18 632 l 18 358 b 129 268 18 308 68 268 l 536 268 b 647 358 597 268 647 308 l 647 582 b 536 672 647 632 597 672 z m 624 358 b 536 288 624 319 585 288 l 129 288 b 42 358 82 288 42 319 l 42 582 b 129 653 42 621 82 653 l 536 653 b 624 582 585 653 624 621 l 624 358 z m 171 508 l 215 508 l 215 529 l 171 529 l 171 544 l 221 544 l 221 565 l 136 565 l 136 481 l 171 481 l 171 508 z m 268 503 l 278 503 l 296 481 l 333 481 l 311 507 b 331 533 324 513 331 521 b 283 565 331 553 313 565 l 232 565 l 232 481 l 268 481 l 268 503 z m 268 543 l 281 543 b 296 533 290 543 296 540 b 281 524 296 528 290 524 l 268 524 l 268 543 z m 432 503 l 379 503 l 379 514 l 424 514 l 424 535 l 379 535 l 379 544 l 431 544 l 431 565 l 344 565 l 344 481 l 432 481 l 432 503 z m 533 503 l 481 503 l 481 514 l 525 514 l 525 535 l 481 535 l 481 544 l 532 544 l 532 565 l 446 565 l 446 481 l 533 481 l 533 503 z m 156 396 l 142 425 l 119 425 l 146 376 l 165 376 l 192 425 l 171 425 l 156 396 z m 214 394 l 240 394 l 240 407 l 214 407 l 214 413 l 243 413 l 243 425 l 193 425 l 193 376 l 244 376 l 244 389 l 214 389 l 214 394 z m 310 407 b 282 425 310 418 300 425 l 253 425 l 253 376 l 274 376 l 274 389 l 279 389 l 289 376 l 311 376 l 299 392 b 310 407 306 394 310 400 z m 281 401 l 274 401 l 274 413 l 281 413 b 289 407 286 413 289 410 b 281 401 289 403 286 401 z m 336 411 b 343 414 336 413 338 414 b 361 410 349 414 354 413 l 367 422 b 343 426 361 425 351 426 b 315 410 325 426 315 419 b 349 390 315 392 349 396 b 342 388 349 389 347 388 b 321 392 335 388 326 389 l 314 379 b 340 375 321 376 331 375 b 369 392 360 375 369 382 b 336 411 369 410 336 404 z m 375 376 l 396 376 l 396 425 l 375 425 l 375 376 z m 439 426 b 404 400 418 426 404 415 b 439 375 404 386 418 375 b 474 400 458 375 474 386 b 439 426 474 415 458 426 z m 439 388 b 425 400 431 388 425 393 b 439 413 425 408 431 413 b 453 400 446 413 453 408 b 439 388 453 393 446 388 z m 521 403 l 497 425 l 481 425 l 481 376 l 501 376 l 501 399 l 524 376 l 542 376 l 542 425 l 521 425 l 521 403 z "},"$":{"ha":663,"x_min":0,"x_max":0,"o":"m 536 672 l 129 672 b 18 582 68 672 18 632 l 18 358 b 129 268 18 308 68 268 l 536 268 b 647 358 597 268 647 308 l 647 582 b 536 672 647 632 597 672 z m 624 358 b 536 288 624 319 585 288 l 129 288 b 42 358 82 288 42 319 l 42 582 b 129 653 42 621 82 653 l 536 653 b 624 582 585 653 624 621 l 624 358 z m 171 508 l 215 508 l 215 529 l 171 529 l 171 544 l 221 544 l 221 565 l 136 565 l 136 481 l 171 481 l 171 508 z m 268 503 l 278 503 l 296 481 l 333 481 l 311 507 b 331 533 324 513 331 521 b 283 565 331 553 313 565 l 232 565 l 232 481 l 268 481 l 268 503 z m 268 543 l 281 543 b 296 533 290 543 296 540 b 281 524 296 528 290 524 l 268 524 l 268 543 z m 432 503 l 379 503 l 379 514 l 424 514 l 424 535 l 379 535 l 379 544 l 431 544 l 431 565 l 344 565 l 344 481 l 432 481 l 432 503 z m 533 503 l 481 503 l 481 514 l 525 514 l 525 535 l 481 535 l 481 544 l 532 544 l 532 565 l 446 565 l 446 481 l 533 481 l 533 503 z m 156 396 l 142 425 l 119 425 l 146 376 l 165 376 l 192 425 l 171 425 l 156 396 z m 214 394 l 240 394 l 240 407 l 214 407 l 214 413 l 243 413 l 243 425 l 193 425 l 193 376 l 244 376 l 244 389 l 214 389 l 214 394 z m 310 407 b 282 425 310 418 300 425 l 253 425 l 253 376 l 274 376 l 274 389 l 279 389 l 289 376 l 311 376 l 299 392 b 310 407 306 394 310 400 z m 281 401 l 274 401 l 274 413 l 281 413 b 289 407 286 413 289 410 b 281 401 289 403 286 401 z m 336 411 b 343 414 336 413 338 414 b 361 410 349 414 354 413 l 367 422 b 343 426 361 425 351 426 b 315 410 325 426 315 419 b 349 390 315 392 349 396 b 342 388 349 389 347 388 b 321 392 335 388 326 389 l 314 379 b 340 375 321 376 331 375 b 369 392 360 375 369 382 b 336 411 369 410 336 404 z m 375 376 l 396 376 l 396 425 l 375 425 l 375 376 z m 439 426 b 404 400 418 426 404 415 b 439 375 404 386 418 375 b 474 400 458 375 474 386 b 439 426 474 415 458 426 z m 439 388 b 425 400 431 388 425 393 b 439 413 425 408 431 413 b 453 400 446 413 453 408 b 439 388 453 393 446 388 z m 521 403 l 497 425 l 481 425 l 481 376 l 501 376 l 501 399 l 524 376 l 542 376 l 542 425 l 521 425 l 521 403 z "},"%":{"ha":663,"x_min":0,"x_max":0,"o":"m 536 672 l 129 672 b 18 582 68 672 18 632 l 18 358 b 129 268 18 308 68 268 l 536 268 b 647 358 597 268 647 308 l 647 582 b 536 672 647 632 597 672 z m 624 358 b 536 288 624 319 585 288 l 129 288 b 42 358 82 288 42 319 l 42 582 b 129 653 42 621 82 653 l 536 653 b 624 582 585 653 624 621 l 624 358 z m 171 508 l 215 508 l 215 529 l 171 529 l 171 544 l 221 544 l 221 565 l 136 565 l 136 481 l 171 481 l 171 508 z m 268 503 l 278 503 l 296 481 l 333 481 l 311 507 b 331 533 324 513 331 521 b 283 565 331 553 313 565 l 232 565 l 232 481 l 268 481 l 268 503 z m 268 543 l 281 543 b 296 533 290 543 296 540 b 281 524 296 528 290 524 l 268 524 l 268 543 z m 432 503 l 379 503 l 379 514 l 424 514 l 424 535 l 379 535 l 379 544 l 431 544 l 431 565 l 344 565 l 344 481 l 432 481 l 432 503 z m 533 503 l 481 503 l 481 514 l 525 514 l 525 535 l 481 535 l 481 544 l 532 544 l 532 565 l 446 565 l 446 481 l 533 481 l 533 503 z m 156 396 l 142 425 l 119 425 l 146 376 l 165 376 l 192 425 l 171 425 l 156 396 z m 214 394 l 240 394 l 240 407 l 214 407 l 214 413 l 243 413 l 243 425 l 193 425 l 193 376 l 244 376 l 244 389 l 214 389 l 214 394 z m 310 407 b 282 425 310 418 300 425 l 253 425 l 253 376 l 274 376 l 274 389 l 279 389 l 289 376 l 311 376 l 299 392 b 310 407 306 394 310 400 z m 281 401 l 274 401 l 274 413 l 281 413 b 289 407 286 413 289 410 b 281 401 289 403 286 401 z m 336 411 b 343 414 336 413 338 414 b 361 410 349 414 354 413 l 367 422 b 343 426 361 425 351 426 b 315 410 325 426 315 419 b 349 390 315 392 349 396 b 342 388 349 389 347 388 b 321 392 335 388 326 389 l 314 379 b 340 375 321 376 331 375 b 369 392 360 375 369 382 b 336 411 369 410 336 404 z m 375 376 l 396 376 l 396 425 l 375 425 l 375 376 z m 439 426 b 404 400 418 426 404 415 b 439 375 404 386 418 375 b 474 400 458 375 474 386 b 439 426 474 415 458 426 z m 439 388 b 425 400 431 388 425 393 b 439 413 425 408 431 413 b 453 400 446 413 453 408 b 439 388 453 393 446 388 z m 521 403 l 497 425 l 481 425 l 481 376 l 501 376 l 501 399 l 524 376 l 542 376 l 542 425 l 521 425 l 521 403 z "},"&":{"ha":713,"x_min":0,"x_max":0,"o":"m 585 146 l 439 282 l 565 347 l 565 496 l 421 496 l 421 435 l 326 386 l 208 496 b 204 507 206 499 204 503 b 208 517 204 513 206 515 b 218 522 210 519 214 522 l 564 522 l 564 667 l 218 667 b 104 619 175 667 135 650 b 58 504 74 588 58 547 b 110 390 60 461 78 419 l 190 315 l 188 313 b 58 74 107 260 58 169 l 58 0 l 310 0 l 310 146 l 222 146 b 264 190 233 163 247 178 l 303 211 l 528 1 l 674 1 l 674 146 z "},"'":{"ha":663,"x_min":0,"x_max":0,"o":"m 536 672 l 129 672 b 18 582 68 672 18 632 l 18 358 b 129 268 18 308 68 268 l 536 268 b 647 358 597 268 647 308 l 647 582 b 536 672 647 632 597 672 z m 624 358 b 536 288 624 319 585 288 l 129 288 b 42 358 82 288 42 319 l 42 582 b 129 653 42 621 82 653 l 536 653 b 624 582 585 653 624 621 l 624 358 z m 171 508 l 215 508 l 215 529 l 171 529 l 171 544 l 221 544 l 221 565 l 136 565 l 136 481 l 171 481 l 171 508 z m 268 503 l 278 503 l 296 481 l 333 481 l 311 507 b 331 533 324 513 331 521 b 283 565 331 553 313 565 l 232 565 l 232 481 l 268 481 l 268 503 z m 268 543 l 281 543 b 296 533 290 543 296 540 b 281 524 296 528 290 524 l 268 524 l 268 543 z m 432 503 l 379 503 l 379 514 l 424 514 l 424 535 l 379 535 l 379 544 l 431 544 l 431 565 l 344 565 l 344 481 l 432 481 l 432 503 z m 533 503 l 481 503 l 481 514 l 525 514 l 525 535 l 481 535 l 481 544 l 532 544 l 532 565 l 446 565 l 446 481 l 533 481 l 533 503 z m 156 396 l 142 425 l 119 425 l 146 376 l 165 376 l 192 425 l 171 425 l 156 396 z m 214 394 l 240 394 l 240 407 l 214 407 l 214 413 l 243 413 l 243 425 l 193 425 l 193 376 l 244 376 l 244 389 l 214 389 l 214 394 z m 310 407 b 282 425 310 418 300 425 l 253 425 l 253 376 l 274 376 l 274 389 l 279 389 l 289 376 l 311 376 l 299 392 b 310 407 306 394 310 400 z m 281 401 l 274 401 l 274 413 l 281 413 b 289 407 286 413 289 410 b 281 401 289 403 286 401 z m 336 411 b 343 414 336 413 338 414 b 361 410 349 414 354 413 l 367 422 b 343 426 361 425 351 426 b 315 410 325 426 315 419 b 349 390 315 392 349 396 b 342 388 349 389 347 388 b 321 392 335 388 326 389 l 314 379 b 340 375 321 376 331 375 b 369 392 360 375 369 382 b 336 411 369 410 336 404 z m 375 376 l 396 376 l 396 425 l 375 425 l 375 376 z m 439 426 b 404 400 418 426 404 415 b 439 375 404 386 418 375 b 474 400 458 375 474 386 b 439 426 474 415 458 426 z m 439 388 b 425 400 431 388 425 393 b 439 413 425 408 431 413 b 453 400 446 413 453 408 b 439 388 453 393 446 388 z m 521 403 l 497 425 l 481 425 l 481 376 l 501 376 l 501 399 l 524 376 l 542 376 l 542 425 l 521 425 l 521 403 z "},"(":{"ha":663,"x_min":0,"x_max":0,"o":"m 536 672 l 129 672 b 18 582 68 672 18 632 l 18 358 b 129 268 18 308 68 268 l 536 268 b 647 358 597 268 647 308 l 647 582 b 536 672 647 632 597 672 z m 624 358 b 536 288 624 319 585 288 l 129 288 b 42 358 82 288 42 319 l 42 582 b 129 653 42 621 82 653 l 536 653 b 624 582 585 653 624 621 l 624 358 z m 171 508 l 215 508 l 215 529 l 171 529 l 171 544 l 221 544 l 221 565 l 136 565 l 136 481 l 171 481 l 171 508 z m 268 503 l 278 503 l 296 481 l 333 481 l 311 507 b 331 533 324 513 331 521 b 283 565 331 553 313 565 l 232 565 l 232 481 l 268 481 l 268 503 z m 268 543 l 281 543 b 296 533 290 543 296 540 b 281 524 296 528 290 524 l 268 524 l 268 543 z m 432 503 l 379 503 l 379 514 l 424 514 l 424 535 l 379 535 l 379 544 l 431 544 l 431 565 l 344 565 l 344 481 l 432 481 l 432 503 z m 533 503 l 481 503 l 481 514 l 525 514 l 525 535 l 481 535 l 481 544 l 532 544 l 532 565 l 446 565 l 446 481 l 533 481 l 533 503 z m 156 396 l 142 425 l 119 425 l 146 376 l 165 376 l 192 425 l 171 425 l 156 396 z m 214 394 l 240 394 l 240 407 l 214 407 l 214 413 l 243 413 l 243 425 l 193 425 l 193 376 l 244 376 l 244 389 l 214 389 l 214 394 z m 310 407 b 282 425 310 418 300 425 l 253 425 l 253 376 l 274 376 l 274 389 l 279 389 l 289 376 l 311 376 l 299 392 b 310 407 306 394 310 400 z m 281 401 l 274 401 l 274 413 l 281 413 b 289 407 286 413 289 410 b 281 401 289 403 286 401 z m 336 411 b 343 414 336 413 338 414 b 361 410 349 414 354 413 l 367 422 b 343 426 361 425 351 426 b 315 410 325 426 315 419 b 349 390 315 392 349 396 b 342 388 349 389 347 388 b 321 392 335 388 326 389 l 314 379 b 340 375 321 376 331 375 b 369 392 360 375 369 382 b 336 411 369 410 336 404 z m 375 376 l 396 376 l 396 425 l 375 425 l 375 376 z m 439 426 b 404 400 418 426 404 415 b 439 375 404 386 418 375 b 474 400 458 375 474 386 b 439 426 474 415 458 426 z m 439 388 b 425 400 431 388 425 393 b 439 413 425 408 431 413 b 453 400 446 413 453 408 b 439 388 453 393 446 388 z m 521 403 l 497 425 l 481 425 l 481 376 l 501 376 l 501 399 l 524 376 l 542 376 l 542 425 l 521 425 l 521 403 z "},")":{"ha":663,"x_min":0,"x_max":0,"o":"m 536 672 l 129 672 b 18 582 68 672 18 632 l 18 358 b 129 268 18 308 68 268 l 536 268 b 647 358 597 268 647 308 l 647 582 b 536 672 647 632 597 672 z m 624 358 b 536 288 624 319 585 288 l 129 288 b 42 358 82 288 42 319 l 42 582 b 129 653 42 621 82 653 l 536 653 b 624 582 585 653 624 621 l 624 358 z m 171 508 l 215 508 l 215 529 l 171 529 l 171 544 l 221 544 l 221 565 l 136 565 l 136 481 l 171 481 l 171 508 z m 268 503 l 278 503 l 296 481 l 333 481 l 311 507 b 331 533 324 513 331 521 b 283 565 331 553 313 565 l 232 565 l 232 481 l 268 481 l 268 503 z m 268 543 l 281 543 b 296 533 290 543 296 540 b 281 524 296 528 290 524 l 268 524 l 268 543 z m 432 503 l 379 503 l 379 514 l 424 514 l 424 535 l 379 535 l 379 544 l 431 544 l 431 565 l 344 565 l 344 481 l 432 481 l 432 503 z m 533 503 l 481 503 l 481 514 l 525 514 l 525 535 l 481 535 l 481 544 l 532 544 l 532 565 l 446 565 l 446 481 l 533 481 l 533 503 z m 156 396 l 142 425 l 119 425 l 146 376 l 165 376 l 192 425 l 171 425 l 156 396 z m 214 394 l 240 394 l 240 407 l 214 407 l 214 413 l 243 413 l 243 425 l 193 425 l 193 376 l 244 376 l 244 389 l 214 389 l 214 394 z m 310 407 b 282 425 310 418 300 425 l 253 425 l 253 376 l 274 376 l 274 389 l 279 389 l 289 376 l 311 376 l 299 392 b 310 407 306 394 310 400 z m 281 401 l 274 401 l 274 413 l 281 413 b 289 407 286 413 289 410 b 281 401 289 403 286 401 z m 336 411 b 343 414 336 413 338 414 b 361 410 349 414 354 413 l 367 422 b 343 426 361 425 351 426 b 315 410 325 426 315 419 b 349 390 315 392 349 396 b 342 388 349 389 347 388 b 321 392 335 388 326 389 l 314 379 b 340 375 321 376 331 375 b 369 392 360 375 369 382 b 336 411 369 410 336 404 z m 375 376 l 396 376 l 396 425 l 375 425 l 375 376 z m 439 426 b 404 400 418 426 404 415 b 439 375 404 386 418 375 b 474 400 458 375 474 386 b 439 426 474 415 458 426 z m 439 388 b 425 400 431 388 425 393 b 439 413 425 408 431 413 b 453 400 446 413 453 408 b 439 388 453 393 446 388 z m 521 403 l 497 425 l 481 425 l 481 376 l 501 376 l 501 399 l 524 376 l 542 376 l 542 425 l 521 425 l 521 403 z "},"*":{"ha":663,"x_min":0,"x_max":0,"o":"m 536 672 l 129 672 b 18 582 68 672 18 632 l 18 358 b 129 268 18 308 68 268 l 536 268 b 647 358 597 268 647 308 l 647 582 b 536 672 647 632 597 672 z m 624 358 b 536 288 624 319 585 288 l 129 288 b 42 358 82 288 42 319 l 42 582 b 129 653 42 621 82 653 l 536 653 b 624 582 585 653 624 621 l 624 358 z m 171 508 l 215 508 l 215 529 l 171 529 l 171 544 l 221 544 l 221 565 l 136 565 l 136 481 l 171 481 l 171 508 z m 268 503 l 278 503 l 296 481 l 333 481 l 311 507 b 331 533 324 513 331 521 b 283 565 331 553 313 565 l 232 565 l 232 481 l 268 481 l 268 503 z m 268 543 l 281 543 b 296 533 290 543 296 540 b 281 524 296 528 290 524 l 268 524 l 268 543 z m 432 503 l 379 503 l 379 514 l 424 514 l 424 535 l 379 535 l 379 544 l 431 544 l 431 565 l 344 565 l 344 481 l 432 481 l 432 503 z m 533 503 l 481 503 l 481 514 l 525 514 l 525 535 l 481 535 l 481 544 l 532 544 l 532 565 l 446 565 l 446 481 l 533 481 l 533 503 z m 156 396 l 142 425 l 119 425 l 146 376 l 165 376 l 192 425 l 171 425 l 156 396 z m 214 394 l 240 394 l 240 407 l 214 407 l 214 413 l 243 413 l 243 425 l 193 425 l 193 376 l 244 376 l 244 389 l 214 389 l 214 394 z m 310 407 b 282 425 310 418 300 425 l 253 425 l 253 376 l 274 376 l 274 389 l 279 389 l 289 376 l 311 376 l 299 392 b 310 407 306 394 310 400 z m 281 401 l 274 401 l 274 413 l 281 413 b 289 407 286 413 289 410 b 281 401 289 403 286 401 z m 336 411 b 343 414 336 413 338 414 b 361 410 349 414 354 413 l 367 422 b 343 426 361 425 351 426 b 315 410 325 426 315 419 b 349 390 315 392 349 396 b 342 388 349 389 347 388 b 321 392 335 388 326 389 l 314 379 b 340 375 321 376 331 375 b 369 392 360 375 369 382 b 336 411 369 410 336 404 z m 375 376 l 396 376 l 396 425 l 375 425 l 375 376 z m 439 426 b 404 400 418 426 404 415 b 439 375 404 386 418 375 b 474 400 458 375 474 386 b 439 426 474 415 458 426 z m 439 388 b 425 400 431 388 425 393 b 439 413 425 408 431 413 b 453 400 446 413 453 408 b 439 388 453 393 446 388 z m 521 403 l 497 425 l 481 425 l 481 376 l 501 376 l 501 399 l 524 376 l 542 376 l 542 425 l 521 425 l 521 403 z "},"+":{"ha":663,"x_min":0,"x_max":0,"o":"m 536 672 l 129 672 b 18 582 68 672 18 632 l 18 358 b 129 268 18 308 68 268 l 536 268 b 647 358 597 268 647 308 l 647 582 b 536 672 647 632 597 672 z m 624 358 b 536 288 624 319 585 288 l 129 288 b 42 358 82 288 42 319 l 42 582 b 129 653 42 621 82 653 l 536 653 b 624 582 585 653 624 621 l 624 358 z m 171 508 l 215 508 l 215 529 l 171 529 l 171 544 l 221 544 l 221 565 l 136 565 l 136 481 l 171 481 l 171 508 z m 268 503 l 278 503 l 296 481 l 333 481 l 311 507 b 331 533 324 513 331 521 b 283 565 331 553 313 565 l 232 565 l 232 481 l 268 481 l 268 503 z m 268 543 l 281 543 b 296 533 290 543 296 540 b 281 524 296 528 290 524 l 268 524 l 268 543 z m 432 503 l 379 503 l 379 514 l 424 514 l 424 535 l 379 535 l 379 544 l 431 544 l 431 565 l 344 565 l 344 481 l 432 481 l 432 503 z m 533 503 l 481 503 l 481 514 l 525 514 l 525 535 l 481 535 l 481 544 l 532 544 l 532 565 l 446 565 l 446 481 l 533 481 l 533 503 z m 156 396 l 142 425 l 119 425 l 146 376 l 165 376 l 192 425 l 171 425 l 156 396 z m 214 394 l 240 394 l 240 407 l 214 407 l 214 413 l 243 413 l 243 425 l 193 425 l 193 376 l 244 376 l 244 389 l 214 389 l 214 394 z m 310 407 b 282 425 310 418 300 425 l 253 425 l 253 376 l 274 376 l 274 389 l 279 389 l 289 376 l 311 376 l 299 392 b 310 407 306 394 310 400 z m 281 401 l 274 401 l 274 413 l 281 413 b 289 407 286 413 289 410 b 281 401 289 403 286 401 z m 336 411 b 343 414 336 413 338 414 b 361 410 349 414 354 413 l 367 422 b 343 426 361 425 351 426 b 315 410 325 426 315 419 b 349 390 315 392 349 396 b 342 388 349 389 347 388 b 321 392 335 388 326 389 l 314 379 b 340 375 321 376 331 375 b 369 392 360 375 369 382 b 336 411 369 410 336 404 z m 375 376 l 396 376 l 396 425 l 375 425 l 375 376 z m 439 426 b 404 400 418 426 404 415 b 439 375 404 386 418 375 b 474 400 458 375 474 386 b 439 426 474 415 458 426 z m 439 388 b 425 400 431 388 425 393 b 439 413 425 408 431 413 b 453 400 446 413 453 408 b 439 388 453 393 446 388 z m 521 403 l 497 425 l 481 425 l 481 376 l 501 376 l 501 399 l 524 376 l 542 376 l 542 425 l 521 425 l 521 403 z "},",":{"ha":275,"x_min":0,"x_max":0,"o":"m 103 157 l 33 157 l 33 13 l 99 13 l 99 -114 l 243 -114 l 243 17 b 103 157 243 94 181 157 z "},"-":{"ha":663,"x_min":0,"x_max":0,"o":"m 536 672 l 129 672 b 18 582 68 672 18 632 l 18 358 b 129 268 18 308 68 268 l 536 268 b 647 358 597 268 647 308 l 647 582 b 536 672 647 632 597 672 z m 624 358 b 536 288 624 319 585 288 l 129 288 b 42 358 82 288 42 319 l 42 582 b 129 653 42 621 82 653 l 536 653 b 624 582 585 653 624 621 l 624 358 z m 171 508 l 215 508 l 215 529 l 171 529 l 171 544 l 221 544 l 221 565 l 136 565 l 136 481 l 171 481 l 171 508 z m 268 503 l 278 503 l 296 481 l 333 481 l 311 507 b 331 533 324 513 331 521 b 283 565 331 553 313 565 l 232 565 l 232 481 l 268 481 l 268 503 z m 268 543 l 281 543 b 296 533 290 543 296 540 b 281 524 296 528 290 524 l 268 524 l 268 543 z m 432 503 l 379 503 l 379 514 l 424 514 l 424 535 l 379 535 l 379 544 l 431 544 l 431 565 l 344 565 l 344 481 l 432 481 l 432 503 z m 533 503 l 481 503 l 481 514 l 525 514 l 525 535 l 481 535 l 481 544 l 532 544 l 532 565 l 446 565 l 446 481 l 533 481 l 533 503 z m 156 396 l 142 425 l 119 425 l 146 376 l 165 376 l 192 425 l 171 425 l 156 396 z m 214 394 l 240 394 l 240 407 l 214 407 l 214 413 l 243 413 l 243 425 l 193 425 l 193 376 l 244 376 l 244 389 l 214 389 l 214 394 z m 310 407 b 282 425 310 418 300 425 l 253 425 l 253 376 l 274 376 l 274 389 l 279 389 l 289 376 l 311 376 l 299 392 b 310 407 306 394 310 400 z m 281 401 l 274 401 l 274 413 l 281 413 b 289 407 286 413 289 410 b 281 401 289 403 286 401 z m 336 411 b 343 414 336 413 338 414 b 361 410 349 414 354 413 l 367 422 b 343 426 361 425 351 426 b 315 410 325 426 315 419 b 349 390 315 392 349 396 b 342 388 349 389 347 388 b 321 392 335 388 326 389 l 314 379 b 340 375 321 376 331 375 b 369 392 360 375 369 382 b 336 411 369 410 336 404 z m 375 376 l 396 376 l 396 425 l 375 425 l 375 376 z m 439 426 b 404 400 418 426 404 415 b 439 375 404 386 418 375 b 474 400 458 375 474 386 b 439 426 474 415 458 426 z m 439 388 b 425 400 431 388 425 393 b 439 413 425 408 431 413 b 453 400 446 413 453 408 b 439 388 453 393 446 388 z m 521 403 l 497 425 l 481 425 l 481 376 l 501 376 l 501 399 l 524 376 l 542 376 l 542 425 l 521 425 l 521 403 z "},".":{"ha":207,"x_min":0,"x_max":0,"o":"m 175 0 l 175 135 l 31 135 l 31 0 z "},"/":{"ha":663,"x_min":0,"x_max":0,"o":"m 536 672 l 129 672 b 18 582 68 672 18 632 l 18 358 b 129 268 18 308 68 268 l 536 268 b 647 358 597 268 647 308 l 647 582 b 536 672 647 632 597 672 z m 624 358 b 536 288 624 319 585 288 l 129 288 b 42 358 82 288 42 319 l 42 582 b 129 653 42 621 82 653 l 536 653 b 624 582 585 653 624 621 l 624 358 z m 171 508 l 215 508 l 215 529 l 171 529 l 171 544 l 221 544 l 221 565 l 136 565 l 136 481 l 171 481 l 171 508 z m 268 503 l 278 503 l 296 481 l 333 481 l 311 507 b 331 533 324 513 331 521 b 283 565 331 553 313 565 l 232 565 l 232 481 l 268 481 l 268 503 z m 268 543 l 281 543 b 296 533 290 543 296 540 b 281 524 296 528 290 524 l 268 524 l 268 543 z m 432 503 l 379 503 l 379 514 l 424 514 l 424 535 l 379 535 l 379 544 l 431 544 l 431 565 l 344 565 l 344 481 l 432 481 l 432 503 z m 533 503 l 481 503 l 481 514 l 525 514 l 525 535 l 481 535 l 481 544 l 532 544 l 532 565 l 446 565 l 446 481 l 533 481 l 533 503 z m 156 396 l 142 425 l 119 425 l 146 376 l 165 376 l 192 425 l 171 425 l 156 396 z m 214 394 l 240 394 l 240 407 l 214 407 l 214 413 l 243 413 l 243 425 l 193 425 l 193 376 l 244 376 l 244 389 l 214 389 l 214 394 z m 310 407 b 282 425 310 418 300 425 l 253 425 l 253 376 l 274 376 l 274 389 l 279 389 l 289 376 l 311 376 l 299 392 b 310 407 306 394 310 400 z m 281 401 l 274 401 l 274 413 l 281 413 b 289 407 286 413 289 410 b 281 401 289 403 286 401 z m 336 411 b 343 414 336 413 338 414 b 361 410 349 414 354 413 l 367 422 b 343 426 361 425 351 426 b 315 410 325 426 315 419 b 349 390 315 392 349 396 b 342 388 349 389 347 388 b 321 392 335 388 326 389 l 314 379 b 340 375 321 376 331 375 b 369 392 360 375 369 382 b 336 411 369 410 336 404 z m 375 376 l 396 376 l 396 425 l 375 425 l 375 376 z m 439 426 b 404 400 418 426 404 415 b 439 375 404 386 418 375 b 474 400 458 375 474 386 b 439 426 474 415 458 426 z m 439 388 b 425 400 431 388 425 393 b 439 413 425 408 431 413 b 453 400 446 413 453 408 b 439 388 453 393 446 388 z m 521 403 l 497 425 l 481 425 l 481 376 l 501 376 l 501 399 l 524 376 l 542 376 l 542 425 l 521 425 l 521 403 z "},":":{"ha":663,"x_min":0,"x_max":0,"o":"m 536 672 l 129 672 b 18 582 68 672 18 632 l 18 358 b 129 268 18 308 68 268 l 536 268 b 647 358 597 268 647 308 l 647 582 b 536 672 647 632 597 672 z m 624 358 b 536 288 624 319 585 288 l 129 288 b 42 358 82 288 42 319 l 42 582 b 129 653 42 621 82 653 l 536 653 b 624 582 585 653 624 621 l 624 358 z m 171 508 l 215 508 l 215 529 l 171 529 l 171 544 l 221 544 l 221 565 l 136 565 l 136 481 l 171 481 l 171 508 z m 268 503 l 278 503 l 296 481 l 333 481 l 311 507 b 331 533 324 513 331 521 b 283 565 331 553 313 565 l 232 565 l 232 481 l 268 481 l 268 503 z m 268 543 l 281 543 b 296 533 290 543 296 540 b 281 524 296 528 290 524 l 268 524 l 268 543 z m 432 503 l 379 503 l 379 514 l 424 514 l 424 535 l 379 535 l 379 544 l 431 544 l 431 565 l 344 565 l 344 481 l 432 481 l 432 503 z m 533 503 l 481 503 l 481 514 l 525 514 l 525 535 l 481 535 l 481 544 l 532 544 l 532 565 l 446 565 l 446 481 l 533 481 l 533 503 z m 156 396 l 142 425 l 119 425 l 146 376 l 165 376 l 192 425 l 171 425 l 156 396 z m 214 394 l 240 394 l 240 407 l 214 407 l 214 413 l 243 413 l 243 425 l 193 425 l 193 376 l 244 376 l 244 389 l 214 389 l 214 394 z m 310 407 b 282 425 310 418 300 425 l 253 425 l 253 376 l 274 376 l 274 389 l 279 389 l 289 376 l 311 376 l 299 392 b 310 407 306 394 310 400 z m 281 401 l 274 401 l 274 413 l 281 413 b 289 407 286 413 289 410 b 281 401 289 403 286 401 z m 336 411 b 343 414 336 413 338 414 b 361 410 349 414 354 413 l 367 422 b 343 426 361 425 351 426 b 315 410 325 426 315 419 b 349 390 315 392 349 396 b 342 388 349 389 347 388 b 321 392 335 388 326 389 l 314 379 b 340 375 321 376 331 375 b 369 392 360 375 369 382 b 336 411 369 410 336 404 z m 375 376 l 396 376 l 396 425 l 375 425 l 375 376 z m 439 426 b 404 400 418 426 404 415 b 439 375 404 386 418 375 b 474 400 458 375 474 386 b 439 426 474 415 458 426 z m 439 388 b 425 400 431 388 425 393 b 439 413 425 408 431 413 b 453 400 446 413 453 408 b 439 388 453 393 446 388 z m 521 403 l 497 425 l 481 425 l 481 376 l 501 376 l 501 399 l 524 376 l 542 376 l 542 425 l 521 425 l 521 403 z "},";":{"ha":663,"x_min":0,"x_max":0,"o":"m 536 672 l 129 672 b 18 582 68 672 18 632 l 18 358 b 129 268 18 308 68 268 l 536 268 b 647 358 597 268 647 308 l 647 582 b 536 672 647 632 597 672 z m 624 358 b 536 288 624 319 585 288 l 129 288 b 42 358 82 288 42 319 l 42 582 b 129 653 42 621 82 653 l 536 653 b 624 582 585 653 624 621 l 624 358 z m 171 508 l 215 508 l 215 529 l 171 529 l 171 544 l 221 544 l 221 565 l 136 565 l 136 481 l 171 481 l 171 508 z m 268 503 l 278 503 l 296 481 l 333 481 l 311 507 b 331 533 324 513 331 521 b 283 565 331 553 313 565 l 232 565 l 232 481 l 268 481 l 268 503 z m 268 543 l 281 543 b 296 533 290 543 296 540 b 281 524 296 528 290 524 l 268 524 l 268 543 z m 432 503 l 379 503 l 379 514 l 424 514 l 424 535 l 379 535 l 379 544 l 431 544 l 431 565 l 344 565 l 344 481 l 432 481 l 432 503 z m 533 503 l 481 503 l 481 514 l 525 514 l 525 535 l 481 535 l 481 544 l 532 544 l 532 565 l 446 565 l 446 481 l 533 481 l 533 503 z m 156 396 l 142 425 l 119 425 l 146 376 l 165 376 l 192 425 l 171 425 l 156 396 z m 214 394 l 240 394 l 240 407 l 214 407 l 214 413 l 243 413 l 243 425 l 193 425 l 193 376 l 244 376 l 244 389 l 214 389 l 214 394 z m 310 407 b 282 425 310 418 300 425 l 253 425 l 253 376 l 274 376 l 274 389 l 279 389 l 289 376 l 311 376 l 299 392 b 310 407 306 394 310 400 z m 281 401 l 274 401 l 274 413 l 281 413 b 289 407 286 413 289 410 b 281 401 289 403 286 401 z m 336 411 b 343 414 336 413 338 414 b 361 410 349 414 354 413 l 367 422 b 343 426 361 425 351 426 b 315 410 325 426 315 419 b 349 390 315 392 349 396 b 342 388 349 389 347 388 b 321 392 335 388 326 389 l 314 379 b 340 375 321 376 331 375 b 369 392 360 375 369 382 b 336 411 369 410 336 404 z m 375 376 l 396 376 l 396 425 l 375 425 l 375 376 z m 439 426 b 404 400 418 426 404 415 b 439 375 404 386 418 375 b 474 400 458 375 474 386 b 439 426 474 415 458 426 z m 439 388 b 425 400 431 388 425 393 b 439 413 425 408 431 413 b 453 400 446 413 453 408 b 439 388 453 393 446 388 z m 521 403 l 497 425 l 481 425 l 481 376 l 501 376 l 501 399 l 524 376 l 542 376 l 542 425 l 521 425 l 521 403 z "},"<":{"ha":663,"x_min":0,"x_max":0,"o":"m 536 672 l 129 672 b 18 582 68 672 18 632 l 18 358 b 129 268 18 308 68 268 l 536 268 b 647 358 597 268 647 308 l 647 582 b 536 672 647 632 597 672 z m 624 358 b 536 288 624 319 585 288 l 129 288 b 42 358 82 288 42 319 l 42 582 b 129 653 42 621 82 653 l 536 653 b 624 582 585 653 624 621 l 624 358 z m 171 508 l 215 508 l 215 529 l 171 529 l 171 544 l 221 544 l 221 565 l 136 565 l 136 481 l 171 481 l 171 508 z m 268 503 l 278 503 l 296 481 l 333 481 l 311 507 b 331 533 324 513 331 521 b 283 565 331 553 313 565 l 232 565 l 232 481 l 268 481 l 268 503 z m 268 543 l 281 543 b 296 533 290 543 296 540 b 281 524 296 528 290 524 l 268 524 l 268 543 z m 432 503 l 379 503 l 379 514 l 424 514 l 424 535 l 379 535 l 379 544 l 431 544 l 431 565 l 344 565 l 344 481 l 432 481 l 432 503 z m 533 503 l 481 503 l 481 514 l 525 514 l 525 535 l 481 535 l 481 544 l 532 544 l 532 565 l 446 565 l 446 481 l 533 481 l 533 503 z m 156 396 l 142 425 l 119 425 l 146 376 l 165 376 l 192 425 l 171 425 l 156 396 z m 214 394 l 240 394 l 240 407 l 214 407 l 214 413 l 243 413 l 243 425 l 193 425 l 193 376 l 244 376 l 244 389 l 214 389 l 214 394 z m 310 407 b 282 425 310 418 300 425 l 253 425 l 253 376 l 274 376 l 274 389 l 279 389 l 289 376 l 311 376 l 299 392 b 310 407 306 394 310 400 z m 281 401 l 274 401 l 274 413 l 281 413 b 289 407 286 413 289 410 b 281 401 289 403 286 401 z m 336 411 b 343 414 336 413 338 414 b 361 410 349 414 354 413 l 367 422 b 343 426 361 425 351 426 b 315 410 325 426 315 419 b 349 390 315 392 349 396 b 342 388 349 389 347 388 b 321 392 335 388 326 389 l 314 379 b 340 375 321 376 331 375 b 369 392 360 375 369 382 b 336 411 369 410 336 404 z m 375 376 l 396 376 l 396 425 l 375 425 l 375 376 z m 439 426 b 404 400 418 426 404 415 b 439 375 404 386 418 375 b 474 400 458 375 474 386 b 439 426 474 415 458 426 z m 439 388 b 425 400 431 388 425 393 b 439 413 425 408 431 413 b 453 400 446 413 453 408 b 439 388 453 393 446 388 z m 521 403 l 497 425 l 481 425 l 481 376 l 501 376 l 501 399 l 524 376 l 542 376 l 542 425 l 521 425 l 521 403 z "},"=":{"ha":663,"x_min":0,"x_max":0,"o":"m 536 672 l 129 672 b 18 582 68 672 18 632 l 18 358 b 129 268 18 308 68 268 l 536 268 b 647 358 597 268 647 308 l 647 582 b 536 672 647 632 597 672 z m 624 358 b 536 288 624 319 585 288 l 129 288 b 42 358 82 288 42 319 l 42 582 b 129 653 42 621 82 653 l 536 653 b 624 582 585 653 624 621 l 624 358 z m 171 508 l 215 508 l 215 529 l 171 529 l 171 544 l 221 544 l 221 565 l 136 565 l 136 481 l 171 481 l 171 508 z m 268 503 l 278 503 l 296 481 l 333 481 l 311 507 b 331 533 324 513 331 521 b 283 565 331 553 313 565 l 232 565 l 232 481 l 268 481 l 268 503 z m 268 543 l 281 543 b 296 533 290 543 296 540 b 281 524 296 528 290 524 l 268 524 l 268 543 z m 432 503 l 379 503 l 379 514 l 424 514 l 424 535 l 379 535 l 379 544 l 431 544 l 431 565 l 344 565 l 344 481 l 432 481 l 432 503 z m 533 503 l 481 503 l 481 514 l 525 514 l 525 535 l 481 535 l 481 544 l 532 544 l 532 565 l 446 565 l 446 481 l 533 481 l 533 503 z m 156 396 l 142 425 l 119 425 l 146 376 l 165 376 l 192 425 l 171 425 l 156 396 z m 214 394 l 240 394 l 240 407 l 214 407 l 214 413 l 243 413 l 243 425 l 193 425 l 193 376 l 244 376 l 244 389 l 214 389 l 214 394 z m 310 407 b 282 425 310 418 300 425 l 253 425 l 253 376 l 274 376 l 274 389 l 279 389 l 289 376 l 311 376 l 299 392 b 310 407 306 394 310 400 z m 281 401 l 274 401 l 274 413 l 281 413 b 289 407 286 413 289 410 b 281 401 289 403 286 401 z m 336 411 b 343 414 336 413 338 414 b 361 410 349 414 354 413 l 367 422 b 343 426 361 425 351 426 b 315 410 325 426 315 419 b 349 390 315 392 349 396 b 342 388 349 389 347 388 b 321 392 335 388 326 389 l 314 379 b 340 375 321 376 331 375 b 369 392 360 375 369 382 b 336 411 369 410 336 404 z m 375 376 l 396 376 l 396 425 l 375 425 l 375 376 z m 439 426 b 404 400 418 426 404 415 b 439 375 404 386 418 375 b 474 400 458 375 474 386 b 439 426 474 415 458 426 z m 439 388 b 425 400 431 388 425 393 b 439 413 425 408 431 413 b 453 400 446 413 453 408 b 439 388 453 393 446 388 z m 521 403 l 497 425 l 481 425 l 481 376 l 501 376 l 501 399 l 524 376 l 542 376 l 542 425 l 521 425 l 521 403 z "},">":{"ha":663,"x_min":0,"x_max":0,"o":"m 536 672 l 129 672 b 18 582 68 672 18 632 l 18 358 b 129 268 18 308 68 268 l 536 268 b 647 358 597 268 647 308 l 647 582 b 536 672 647 632 597 672 z m 624 358 b 536 288 624 319 585 288 l 129 288 b 42 358 82 288 42 319 l 42 582 b 129 653 42 621 82 653 l 536 653 b 624 582 585 653 624 621 l 624 358 z m 171 508 l 215 508 l 215 529 l 171 529 l 171 544 l 221 544 l 221 565 l 136 565 l 136 481 l 171 481 l 171 508 z m 268 503 l 278 503 l 296 481 l 333 481 l 311 507 b 331 533 324 513 331 521 b 283 565 331 553 313 565 l 232 565 l 232 481 l 268 481 l 268 503 z m 268 543 l 281 543 b 296 533 290 543 296 540 b 281 524 296 528 290 524 l 268 524 l 268 543 z m 432 503 l 379 503 l 379 514 l 424 514 l 424 535 l 379 535 l 379 544 l 431 544 l 431 565 l 344 565 l 344 481 l 432 481 l 432 503 z m 533 503 l 481 503 l 481 514 l 525 514 l 525 535 l 481 535 l 481 544 l 532 544 l 532 565 l 446 565 l 446 481 l 533 481 l 533 503 z m 156 396 l 142 425 l 119 425 l 146 376 l 165 376 l 192 425 l 171 425 l 156 396 z m 214 394 l 240 394 l 240 407 l 214 407 l 214 413 l 243 413 l 243 425 l 193 425 l 193 376 l 244 376 l 244 389 l 214 389 l 214 394 z m 310 407 b 282 425 310 418 300 425 l 253 425 l 253 376 l 274 376 l 274 389 l 279 389 l 289 376 l 311 376 l 299 392 b 310 407 306 394 310 400 z m 281 401 l 274 401 l 274 413 l 281 413 b 289 407 286 413 289 410 b 281 401 289 403 286 401 z m 336 411 b 343 414 336 413 338 414 b 361 410 349 414 354 413 l 367 422 b 343 426 361 425 351 426 b 315 410 325 426 315 419 b 349 390 315 392 349 396 b 342 388 349 389 347 388 b 321 392 335 388 326 389 l 314 379 b 340 375 321 376 331 375 b 369 392 360 375 369 382 b 336 411 369 410 336 404 z m 375 376 l 396 376 l 396 425 l 375 425 l 375 376 z m 439 426 b 404 400 418 426 404 415 b 439 375 404 386 418 375 b 474 400 458 375 474 386 b 439 426 474 415 458 426 z m 439 388 b 425 400 431 388 425 393 b 439 413 425 408 431 413 b 453 400 446 413 453 408 b 439 388 453 393 446 388 z m 521 403 l 497 425 l 481 425 l 481 376 l 501 376 l 501 399 l 524 376 l 542 376 l 542 425 l 521 425 l 521 403 z "},"?":{"ha":478,"x_min":0,"x_max":0,"o":"m 411 0 l 411 135 l 267 135 l 267 0 z m 267 667 l 44 667 l 44 422 l 189 422 l 189 522 l 267 522 l 267 214 l 411 214 l 411 667 z "},"@":{"ha":663,"x_min":0,"x_max":0,"o":"m 536 672 l 129 672 b 18 582 68 672 18 632 l 18 358 b 129 268 18 308 68 268 l 536 268 b 647 358 597 268 647 308 l 647 582 b 536 672 647 632 597 672 z m 624 358 b 536 288 624 319 585 288 l 129 288 b 42 358 82 288 42 319 l 42 582 b 129 653 42 621 82 653 l 536 653 b 624 582 585 653 624 621 l 624 358 z m 171 508 l 215 508 l 215 529 l 171 529 l 171 544 l 221 544 l 221 565 l 136 565 l 136 481 l 171 481 l 171 508 z m 268 503 l 278 503 l 296 481 l 333 481 l 311 507 b 331 533 324 513 331 521 b 283 565 331 553 313 565 l 232 565 l 232 481 l 268 481 l 268 503 z m 268 543 l 281 543 b 296 533 290 543 296 540 b 281 524 296 528 290 524 l 268 524 l 268 543 z m 432 503 l 379 503 l 379 514 l 424 514 l 424 535 l 379 535 l 379 544 l 431 544 l 431 565 l 344 565 l 344 481 l 432 481 l 432 503 z m 533 503 l 481 503 l 481 514 l 525 514 l 525 535 l 481 535 l 481 544 l 532 544 l 532 565 l 446 565 l 446 481 l 533 481 l 533 503 z m 156 396 l 142 425 l 119 425 l 146 376 l 165 376 l 192 425 l 171 425 l 156 396 z m 214 394 l 240 394 l 240 407 l 214 407 l 214 413 l 243 413 l 243 425 l 193 425 l 193 376 l 244 376 l 244 389 l 214 389 l 214 394 z m 310 407 b 282 425 310 418 300 425 l 253 425 l 253 376 l 274 376 l 274 389 l 279 389 l 289 376 l 311 376 l 299 392 b 310 407 306 394 310 400 z m 281 401 l 274 401 l 274 413 l 281 413 b 289 407 286 413 289 410 b 281 401 289 403 286 401 z m 336 411 b 343 414 336 413 338 414 b 361 410 349 414 354 413 l 367 422 b 343 426 361 425 351 426 b 315 410 325 426 315 419 b 349 390 315 392 349 396 b 342 388 349 389 347 388 b 321 392 335 388 326 389 l 314 379 b 340 375 321 376 331 375 b 369 392 360 375 369 382 b 336 411 369 410 336 404 z m 375 376 l 396 376 l 396 425 l 375 425 l 375 376 z m 439 426 b 404 400 418 426 404 415 b 439 375 404 386 418 375 b 474 400 458 375 474 386 b 439 426 474 415 458 426 z m 439 388 b 425 400 431 388 425 393 b 439 413 425 408 431 413 b 453 400 446 413 453 408 b 439 388 453 393 446 388 z m 521 403 l 497 425 l 481 425 l 481 376 l 501 376 l 501 399 l 524 376 l 542 376 l 542 425 l 521 425 l 521 403 z "},"A":{"ha":736,"x_min":0,"x_max":0,"o":"m 672 383 l 672 667 l 351 667 b 58 394 190 667 58 544 l 58 0 l 203 0 l 203 246 l 424 246 b 424 246 424 246 424 246 b 503 215 454 246 482 235 b 526 160 514 204 526 186 l 526 0 l 672 0 l 672 160 b 604 318 672 218 647 275 b 422 392 557 365 492 392 l 203 390 l 203 394 b 351 522 203 464 269 522 l 526 522 l 526 383 z "},"B":{"ha":794,"x_min":0,"x_max":0,"o":"m 542 144 l 60 144 l 60 0 l 542 0 b 749 243 656 0 749 108 l 603 243 b 542 144 603 186 571 144 z m 749 469 b 557 667 749 578 663 667 l 60 667 l 60 522 l 557 522 b 603 469 583 522 603 499 b 557 417 603 440 583 417 l 60 417 l 60 272 l 557 272 b 749 469 663 272 749 360 z "},"C":{"ha":797,"x_min":0,"x_max":0,"o":"m 199 144 l 199 322 b 357 522 199 432 269 522 l 599 522 l 599 411 l 744 411 l 744 667 l 357 667 b 54 322 190 667 54 513 l 54 0 l 744 0 l 744 144 z "},"D":{"ha":806,"x_min":0,"x_max":0,"o":"m 67 667 l 67 522 l 67 242 l 211 242 l 211 522 l 611 522 l 611 385 b 413 144 611 253 522 144 l 67 144 l 67 0 l 413 0 b 757 385 603 0 757 172 l 757 667 z "},"E":{"ha":783,"x_min":0,"x_max":0,"o":"m 747 0 l 747 144 l 57 144 l 57 0 z m 257 667 b 56 465 146 667 56 576 l 56 349 l 56 218 l 517 218 l 517 364 l 200 364 l 200 465 b 257 522 200 497 225 522 l 749 522 l 749 667 z "},"F":{"ha":772,"x_min":0,"x_max":0,"o":"m 63 667 l 63 428 l 207 428 l 207 522 l 756 522 l 756 667 z m 63 219 l 63 0 l 207 0 l 207 219 b 264 276 207 251 233 276 l 524 276 l 524 421 l 264 421 b 63 219 153 421 63 331 z "},"G":{"ha":813,"x_min":0,"x_max":0,"o":"m 199 322 b 357 522 199 432 269 522 l 599 522 l 599 411 l 744 411 l 744 667 l 357 667 b 54 322 190 667 54 513 l 54 0 l 744 0 l 744 144 l 199 144 z m 744 197 l 744 343 l 324 343 l 324 197 z "},"H":{"ha":826,"x_min":0,"x_max":0,"o":"m 763 428 l 763 667 l 617 667 l 617 428 z m 561 421 l 268 421 l 268 276 l 561 276 b 617 219 592 276 617 251 l 617 0 l 763 0 l 763 219 b 561 421 763 331 671 421 z m 214 0 l 214 667 l 69 667 l 69 0 z "},"I":{"ha":285,"x_min":0,"x_max":0,"o":"m 214 0 l 214 667 l 69 667 l 69 0 z "},"J":{"ha":779,"x_min":0,"x_max":0,"o":"m 40 667 l 40 522 l 585 522 l 585 385 b 386 144 585 253 496 144 l 40 144 l 40 0 l 386 0 b 731 385 576 0 731 172 l 731 667 z "},"K":{"ha":825,"x_min":0,"x_max":0,"o":"m 763 0 l 763 250 l 617 250 l 617 0 z m 617 667 l 617 481 b 561 424 617 450 592 424 l 214 424 l 214 667 l 69 667 l 69 0 l 214 0 l 214 279 l 561 279 b 763 481 671 279 763 369 l 763 667 z "},"L":{"ha":764,"x_min":0,"x_max":0,"o":"m 199 144 l 199 322 b 357 522 199 432 269 522 l 357 667 b 54 322 190 667 54 513 l 54 0 l 744 0 l 744 144 z "},"M":{"ha":883,"x_min":0,"x_max":0,"o":"m 201 0 l 201 501 l 57 501 l 57 0 z m 307 667 l 200 667 l 200 522 l 307 522 b 368 460 340 522 368 494 l 368 0 l 513 0 l 513 460 b 307 667 513 574 421 667 z m 614 667 l 521 667 l 521 522 l 614 522 b 675 460 647 522 675 494 l 675 0 l 821 0 l 821 460 b 614 667 821 574 728 667 z "},"N":{"ha":726,"x_min":0,"x_max":0,"o":"m 197 0 l 197 443 l 53 443 l 53 0 z m 368 667 l 158 667 l 158 522 l 368 522 b 525 364 454 522 525 451 l 525 0 l 671 0 l 671 364 b 368 667 671 531 535 667 z "},"O":{"ha":806,"x_min":0,"x_max":0,"o":"m 224 668 b 222 668 224 668 224 668 b 111 622 181 668 142 653 b 65 511 82 593 65 553 l 65 0 l 411 0 b 756 385 601 0 756 172 l 756 667 z m 610 385 b 411 144 610 253 521 144 l 210 144 l 210 511 b 214 519 210 515 213 518 b 222 524 215 522 218 524 b 224 524 222 524 222 524 l 610 522 z "},"P":{"ha":782,"x_min":0,"x_max":0,"o":"m 563 667 l 65 667 l 65 522 l 563 522 b 608 469 589 522 608 499 b 563 417 608 440 589 417 l 65 417 l 65 272 l 67 272 l 67 0 l 211 0 l 211 272 l 563 272 b 754 469 668 272 754 360 b 563 667 754 578 668 667 z "},"Q":{"ha":869,"x_min":0,"x_max":0,"o":"m 194 296 b 263 457 194 357 219 414 b 424 522 306 500 363 524 l 594 522 l 594 243 l 740 243 l 740 667 l 424 668 b 422 668 424 668 424 668 b 160 560 324 668 231 629 b 50 296 89 489 50 394 l 50 144 l 50 0 l 286 0 l 286 144 l 194 144 z m 844 0 l 844 144 l 393 144 l 393 0 z "},"R":{"ha":811,"x_min":0,"x_max":0,"o":"m 754 469 b 563 667 754 578 668 667 l 65 667 l 65 522 l 563 522 b 608 469 589 522 608 499 b 563 417 608 440 589 417 l 65 417 l 65 272 l 67 272 l 67 0 l 211 0 l 211 272 l 563 272 b 754 469 668 272 754 360 z m 754 0 l 754 250 l 608 250 l 608 0 z "},"S":{"ha":775,"x_min":0,"x_max":0,"o":"m 546 272 b 579 239 564 272 579 257 l 725 239 b 546 417 725 336 644 417 l 224 417 b 178 469 199 417 178 440 b 224 522 178 499 199 522 l 722 522 l 722 667 l 224 667 b 33 469 119 667 33 578 b 224 272 33 360 119 272 z m 725 0 l 725 144 l 106 144 l 106 0 z "},"T":{"ha":668,"x_min":0,"x_max":0,"o":"m 267 522 l 267 667 l 17 667 l 17 522 z m 514 667 b 271 424 379 667 271 558 l 271 0 l 415 0 l 415 424 b 514 522 415 478 460 522 l 650 522 l 650 667 z "},"U":{"ha":814,"x_min":0,"x_max":0,"o":"m 200 307 l 200 667 l 56 667 l 56 307 b 363 0 56 138 193 0 l 532 0 l 532 144 l 363 144 b 200 307 274 144 200 217 z m 743 0 l 743 667 l 599 667 l 599 0 z "},"V":{"ha":803,"x_min":0,"x_max":0,"o":"m 613 667 l 613 425 b 332 144 613 271 486 144 l 214 144 l 214 667 l 69 667 l 69 0 l 332 0 b 757 425 567 0 757 190 l 757 667 z "},"W":{"ha":814,"x_min":0,"x_max":0,"o":"m 610 667 l 610 297 b 535 106 610 226 583 158 l 640 7 b 754 297 714 86 754 189 l 754 667 z m 376 338 b 214 147 376 242 307 161 l 214 667 l 69 667 l 69 0 l 183 0 b 522 338 369 0 522 151 l 522 667 l 376 667 z "},"X":{"ha":694,"x_min":0,"x_max":0,"o":"m 629 428 l 629 667 l 485 667 l 485 428 z m 428 421 l 265 421 b 208 478 235 421 208 447 l 208 667 l 64 667 l 64 478 b 265 276 64 367 154 276 l 428 276 b 485 219 460 276 485 251 l 485 0 l 629 0 l 629 219 b 428 421 629 331 539 421 z m 208 0 l 208 269 l 64 269 l 64 0 z "},"Y":{"ha":794,"x_min":0,"x_max":0,"o":"m 599 667 l 599 385 b 400 144 599 253 510 144 l 54 144 l 54 0 l 400 0 b 744 385 590 0 744 172 l 744 667 z m 285 257 l 482 257 l 482 403 l 285 403 b 199 488 238 403 199 440 l 199 667 l 54 667 l 54 488 b 285 257 54 361 157 257 z "},"Z":{"ha":774,"x_min":0,"x_max":0,"o":"m 224 250 l 546 250 b 725 428 644 250 725 331 l 579 428 b 546 394 579 410 564 394 l 224 394 b 33 197 119 394 33 307 b 224 0 33 89 119 0 l 722 0 l 722 144 l 224 144 b 178 197 199 144 178 168 b 224 250 178 226 199 250 z m 725 522 l 725 667 l 106 667 l 106 522 z "},"[":{"ha":663,"x_min":0,"x_max":0,"o":"m 536 672 l 129 672 b 18 582 68 672 18 632 l 18 358 b 129 268 18 308 68 268 l 536 268 b 647 358 597 268 647 308 l 647 582 b 536 672 647 632 597 672 z m 624 358 b 536 288 624 319 585 288 l 129 288 b 42 358 82 288 42 319 l 42 582 b 129 653 42 621 82 653 l 536 653 b 624 582 585 653 624 621 l 624 358 z m 171 508 l 215 508 l 215 529 l 171 529 l 171 544 l 221 544 l 221 565 l 136 565 l 136 481 l 171 481 l 171 508 z m 268 503 l 278 503 l 296 481 l 333 481 l 311 507 b 331 533 324 513 331 521 b 283 565 331 553 313 565 l 232 565 l 232 481 l 268 481 l 268 503 z m 268 543 l 281 543 b 296 533 290 543 296 540 b 281 524 296 528 290 524 l 268 524 l 268 543 z m 432 503 l 379 503 l 379 514 l 424 514 l 424 535 l 379 535 l 379 544 l 431 544 l 431 565 l 344 565 l 344 481 l 432 481 l 432 503 z m 533 503 l 481 503 l 481 514 l 525 514 l 525 535 l 481 535 l 481 544 l 532 544 l 532 565 l 446 565 l 446 481 l 533 481 l 533 503 z m 156 396 l 142 425 l 119 425 l 146 376 l 165 376 l 192 425 l 171 425 l 156 396 z m 214 394 l 240 394 l 240 407 l 214 407 l 214 413 l 243 413 l 243 425 l 193 425 l 193 376 l 244 376 l 244 389 l 214 389 l 214 394 z m 310 407 b 282 425 310 418 300 425 l 253 425 l 253 376 l 274 376 l 274 389 l 279 389 l 289 376 l 311 376 l 299 392 b 310 407 306 394 310 400 z m 281 401 l 274 401 l 274 413 l 281 413 b 289 407 286 413 289 410 b 281 401 289 403 286 401 z m 336 411 b 343 414 336 413 338 414 b 361 410 349 414 354 413 l 367 422 b 343 426 361 425 351 426 b 315 410 325 426 315 419 b 349 390 315 392 349 396 b 342 388 349 389 347 388 b 321 392 335 388 326 389 l 314 379 b 340 375 321 376 331 375 b 369 392 360 375 369 382 b 336 411 369 410 336 404 z m 375 376 l 396 376 l 396 425 l 375 425 l 375 376 z m 439 426 b 404 400 418 426 404 415 b 439 375 404 386 418 375 b 474 400 458 375 474 386 b 439 426 474 415 458 426 z m 439 388 b 425 400 431 388 425 393 b 439 413 425 408 431 413 b 453 400 446 413 453 408 b 439 388 453 393 446 388 z m 521 403 l 497 425 l 481 425 l 481 376 l 501 376 l 501 399 l 524 376 l 542 376 l 542 425 l 521 425 l 521 403 z "},"\\":{"ha":663,"x_min":0,"x_max":0,"o":"m 536 672 l 129 672 b 18 582 68 672 18 632 l 18 358 b 129 268 18 308 68 268 l 536 268 b 647 358 597 268 647 308 l 647 582 b 536 672 647 632 597 672 z m 624 358 b 536 288 624 319 585 288 l 129 288 b 42 358 82 288 42 319 l 42 582 b 129 653 42 621 82 653 l 536 653 b 624 582 585 653 624 621 l 624 358 z m 171 508 l 215 508 l 215 529 l 171 529 l 171 544 l 221 544 l 221 565 l 136 565 l 136 481 l 171 481 l 171 508 z m 268 503 l 278 503 l 296 481 l 333 481 l 311 507 b 331 533 324 513 331 521 b 283 565 331 553 313 565 l 232 565 l 232 481 l 268 481 l 268 503 z m 268 543 l 281 543 b 296 533 290 543 296 540 b 281 524 296 528 290 524 l 268 524 l 268 543 z m 432 503 l 379 503 l 379 514 l 424 514 l 424 535 l 379 535 l 379 544 l 431 544 l 431 565 l 344 565 l 344 481 l 432 481 l 432 503 z m 533 503 l 481 503 l 481 514 l 525 514 l 525 535 l 481 535 l 481 544 l 532 544 l 532 565 l 446 565 l 446 481 l 533 481 l 533 503 z m 156 396 l 142 425 l 119 425 l 146 376 l 165 376 l 192 425 l 171 425 l 156 396 z m 214 394 l 240 394 l 240 407 l 214 407 l 214 413 l 243 413 l 243 425 l 193 425 l 193 376 l 244 376 l 244 389 l 214 389 l 214 394 z m 310 407 b 282 425 310 418 300 425 l 253 425 l 253 376 l 274 376 l 274 389 l 279 389 l 289 376 l 311 376 l 299 392 b 310 407 306 394 310 400 z m 281 401 l 274 401 l 274 413 l 281 413 b 289 407 286 413 289 410 b 281 401 289 403 286 401 z m 336 411 b 343 414 336 413 338 414 b 361 410 349 414 354 413 l 367 422 b 343 426 361 425 351 426 b 315 410 325 426 315 419 b 349 390 315 392 349 396 b 342 388 349 389 347 388 b 321 392 335 388 326 389 l 314 379 b 340 375 321 376 331 375 b 369 392 360 375 369 382 b 336 411 369 410 336 404 z m 375 376 l 396 376 l 396 425 l 375 425 l 375 376 z m 439 426 b 404 400 418 426 404 415 b 439 375 404 386 418 375 b 474 400 458 375 474 386 b 439 426 474 415 458 426 z m 439 388 b 425 400 431 388 425 393 b 439 413 425 408 431 413 b 453 400 446 413 453 408 b 439 388 453 393 446 388 z m 521 403 l 497 425 l 481 425 l 481 376 l 501 376 l 501 399 l 524 376 l 542 376 l 542 425 l 521 425 l 521 403 z "},"]":{"ha":663,"x_min":0,"x_max":0,"o":"m 536 672 l 129 672 b 18 582 68 672 18 632 l 18 358 b 129 268 18 308 68 268 l 536 268 b 647 358 597 268 647 308 l 647 582 b 536 672 647 632 597 672 z m 624 358 b 536 288 624 319 585 288 l 129 288 b 42 358 82 288 42 319 l 42 582 b 129 653 42 621 82 653 l 536 653 b 624 582 585 653 624 621 l 624 358 z m 171 508 l 215 508 l 215 529 l 171 529 l 171 544 l 221 544 l 221 565 l 136 565 l 136 481 l 171 481 l 171 508 z m 268 503 l 278 503 l 296 481 l 333 481 l 311 507 b 331 533 324 513 331 521 b 283 565 331 553 313 565 l 232 565 l 232 481 l 268 481 l 268 503 z m 268 543 l 281 543 b 296 533 290 543 296 540 b 281 524 296 528 290 524 l 268 524 l 268 543 z m 432 503 l 379 503 l 379 514 l 424 514 l 424 535 l 379 535 l 379 544 l 431 544 l 431 565 l 344 565 l 344 481 l 432 481 l 432 503 z m 533 503 l 481 503 l 481 514 l 525 514 l 525 535 l 481 535 l 481 544 l 532 544 l 532 565 l 446 565 l 446 481 l 533 481 l 533 503 z m 156 396 l 142 425 l 119 425 l 146 376 l 165 376 l 192 425 l 171 425 l 156 396 z m 214 394 l 240 394 l 240 407 l 214 407 l 214 413 l 243 413 l 243 425 l 193 425 l 193 376 l 244 376 l 244 389 l 214 389 l 214 394 z m 310 407 b 282 425 310 418 300 425 l 253 425 l 253 376 l 274 376 l 274 389 l 279 389 l 289 376 l 311 376 l 299 392 b 310 407 306 394 310 400 z m 281 401 l 274 401 l 274 413 l 281 413 b 289 407 286 413 289 410 b 281 401 289 403 286 401 z m 336 411 b 343 414 336 413 338 414 b 361 410 349 414 354 413 l 367 422 b 343 426 361 425 351 426 b 315 410 325 426 315 419 b 349 390 315 392 349 396 b 342 388 349 389 347 388 b 321 392 335 388 326 389 l 314 379 b 340 375 321 376 331 375 b 369 392 360 375 369 382 b 336 411 369 410 336 404 z m 375 376 l 396 376 l 396 425 l 375 425 l 375 376 z m 439 426 b 404 400 418 426 404 415 b 439 375 404 386 418 375 b 474 400 458 375 474 386 b 439 426 474 415 458 426 z m 439 388 b 425 400 431 388 425 393 b 439 413 425 408 431 413 b 453 400 446 413 453 408 b 439 388 453 393 446 388 z m 521 403 l 497 425 l 481 425 l 481 376 l 501 376 l 501 399 l 524 376 l 542 376 l 542 425 l 521 425 l 521 403 z "},"^":{"ha":663,"x_min":0,"x_max":0,"o":"m 536 672 l 129 672 b 18 582 68 672 18 632 l 18 358 b 129 268 18 308 68 268 l 536 268 b 647 358 597 268 647 308 l 647 582 b 536 672 647 632 597 672 z m 624 358 b 536 288 624 319 585 288 l 129 288 b 42 358 82 288 42 319 l 42 582 b 129 653 42 621 82 653 l 536 653 b 624 582 585 653 624 621 l 624 358 z m 171 508 l 215 508 l 215 529 l 171 529 l 171 544 l 221 544 l 221 565 l 136 565 l 136 481 l 171 481 l 171 508 z m 268 503 l 278 503 l 296 481 l 333 481 l 311 507 b 331 533 324 513 331 521 b 283 565 331 553 313 565 l 232 565 l 232 481 l 268 481 l 268 503 z m 268 543 l 281 543 b 296 533 290 543 296 540 b 281 524 296 528 290 524 l 268 524 l 268 543 z m 432 503 l 379 503 l 379 514 l 424 514 l 424 535 l 379 535 l 379 544 l 431 544 l 431 565 l 344 565 l 344 481 l 432 481 l 432 503 z m 533 503 l 481 503 l 481 514 l 525 514 l 525 535 l 481 535 l 481 544 l 532 544 l 532 565 l 446 565 l 446 481 l 533 481 l 533 503 z m 156 396 l 142 425 l 119 425 l 146 376 l 165 376 l 192 425 l 171 425 l 156 396 z m 214 394 l 240 394 l 240 407 l 214 407 l 214 413 l 243 413 l 243 425 l 193 425 l 193 376 l 244 376 l 244 389 l 214 389 l 214 394 z m 310 407 b 282 425 310 418 300 425 l 253 425 l 253 376 l 274 376 l 274 389 l 279 389 l 289 376 l 311 376 l 299 392 b 310 407 306 394 310 400 z m 281 401 l 274 401 l 274 413 l 281 413 b 289 407 286 413 289 410 b 281 401 289 403 286 401 z m 336 411 b 343 414 336 413 338 414 b 361 410 349 414 354 413 l 367 422 b 343 426 361 425 351 426 b 315 410 325 426 315 419 b 349 390 315 392 349 396 b 342 388 349 389 347 388 b 321 392 335 388 326 389 l 314 379 b 340 375 321 376 331 375 b 369 392 360 375 369 382 b 336 411 369 410 336 404 z m 375 376 l 396 376 l 396 425 l 375 425 l 375 376 z m 439 426 b 404 400 418 426 404 415 b 439 375 404 386 418 375 b 474 400 458 375 474 386 b 439 426 474 415 458 426 z m 439 388 b 425 400 431 388 425 393 b 439 413 425 408 431 413 b 453 400 446 413 453 408 b 439 388 453 393 446 388 z m 521 403 l 497 425 l 481 425 l 481 376 l 501 376 l 501 399 l 524 376 l 542 376 l 542 425 l 521 425 l 521 403 z "},"_":{"ha":663,"x_min":0,"x_max":0,"o":"m 536 672 l 129 672 b 18 582 68 672 18 632 l 18 358 b 129 268 18 308 68 268 l 536 268 b 647 358 597 268 647 308 l 647 582 b 536 672 647 632 597 672 z m 624 358 b 536 288 624 319 585 288 l 129 288 b 42 358 82 288 42 319 l 42 582 b 129 653 42 621 82 653 l 536 653 b 624 582 585 653 624 621 l 624 358 z m 171 508 l 215 508 l 215 529 l 171 529 l 171 544 l 221 544 l 221 565 l 136 565 l 136 481 l 171 481 l 171 508 z m 268 503 l 278 503 l 296 481 l 333 481 l 311 507 b 331 533 324 513 331 521 b 283 565 331 553 313 565 l 232 565 l 232 481 l 268 481 l 268 503 z m 268 543 l 281 543 b 296 533 290 543 296 540 b 281 524 296 528 290 524 l 268 524 l 268 543 z m 432 503 l 379 503 l 379 514 l 424 514 l 424 535 l 379 535 l 379 544 l 431 544 l 431 565 l 344 565 l 344 481 l 432 481 l 432 503 z m 533 503 l 481 503 l 481 514 l 525 514 l 525 535 l 481 535 l 481 544 l 532 544 l 532 565 l 446 565 l 446 481 l 533 481 l 533 503 z m 156 396 l 142 425 l 119 425 l 146 376 l 165 376 l 192 425 l 171 425 l 156 396 z m 214 394 l 240 394 l 240 407 l 214 407 l 214 413 l 243 413 l 243 425 l 193 425 l 193 376 l 244 376 l 244 389 l 214 389 l 214 394 z m 310 407 b 282 425 310 418 300 425 l 253 425 l 253 376 l 274 376 l 274 389 l 279 389 l 289 376 l 311 376 l 299 392 b 310 407 306 394 310 400 z m 281 401 l 274 401 l 274 413 l 281 413 b 289 407 286 413 289 410 b 281 401 289 403 286 401 z m 336 411 b 343 414 336 413 338 414 b 361 410 349 414 354 413 l 367 422 b 343 426 361 425 351 426 b 315 410 325 426 315 419 b 349 390 315 392 349 396 b 342 388 349 389 347 388 b 321 392 335 388 326 389 l 314 379 b 340 375 321 376 331 375 b 369 392 360 375 369 382 b 336 411 369 410 336 404 z m 375 376 l 396 376 l 396 425 l 375 425 l 375 376 z m 439 426 b 404 400 418 426 404 415 b 439 375 404 386 418 375 b 474 400 458 375 474 386 b 439 426 474 415 458 426 z m 439 388 b 425 400 431 388 425 393 b 439 413 425 408 431 413 b 453 400 446 413 453 408 b 439 388 453 393 446 388 z m 521 403 l 497 425 l 481 425 l 481 376 l 501 376 l 501 399 l 524 376 l 542 376 l 542 425 l 521 425 l 521 403 z "},"`":{"ha":663,"x_min":0,"x_max":0,"o":"m 536 672 l 129 672 b 18 582 68 672 18 632 l 18 358 b 129 268 18 308 68 268 l 536 268 b 647 358 597 268 647 308 l 647 582 b 536 672 647 632 597 672 z m 624 358 b 536 288 624 319 585 288 l 129 288 b 42 358 82 288 42 319 l 42 582 b 129 653 42 621 82 653 l 536 653 b 624 582 585 653 624 621 l 624 358 z m 171 508 l 215 508 l 215 529 l 171 529 l 171 544 l 221 544 l 221 565 l 136 565 l 136 481 l 171 481 l 171 508 z m 268 503 l 278 503 l 296 481 l 333 481 l 311 507 b 331 533 324 513 331 521 b 283 565 331 553 313 565 l 232 565 l 232 481 l 268 481 l 268 503 z m 268 543 l 281 543 b 296 533 290 543 296 540 b 281 524 296 528 290 524 l 268 524 l 268 543 z m 432 503 l 379 503 l 379 514 l 424 514 l 424 535 l 379 535 l 379 544 l 431 544 l 431 565 l 344 565 l 344 481 l 432 481 l 432 503 z m 533 503 l 481 503 l 481 514 l 525 514 l 525 535 l 481 535 l 481 544 l 532 544 l 532 565 l 446 565 l 446 481 l 533 481 l 533 503 z m 156 396 l 142 425 l 119 425 l 146 376 l 165 376 l 192 425 l 171 425 l 156 396 z m 214 394 l 240 394 l 240 407 l 214 407 l 214 413 l 243 413 l 243 425 l 193 425 l 193 376 l 244 376 l 244 389 l 214 389 l 214 394 z m 310 407 b 282 425 310 418 300 425 l 253 425 l 253 376 l 274 376 l 274 389 l 279 389 l 289 376 l 311 376 l 299 392 b 310 407 306 394 310 400 z m 281 401 l 274 401 l 274 413 l 281 413 b 289 407 286 413 289 410 b 281 401 289 403 286 401 z m 336 411 b 343 414 336 413 338 414 b 361 410 349 414 354 413 l 367 422 b 343 426 361 425 351 426 b 315 410 325 426 315 419 b 349 390 315 392 349 396 b 342 388 349 389 347 388 b 321 392 335 388 326 389 l 314 379 b 340 375 321 376 331 375 b 369 392 360 375 369 382 b 336 411 369 410 336 404 z m 375 376 l 396 376 l 396 425 l 375 425 l 375 376 z m 439 426 b 404 400 418 426 404 415 b 439 375 404 386 418 375 b 474 400 458 375 474 386 b 439 426 474 415 458 426 z m 439 388 b 425 400 431 388 425 393 b 439 413 425 408 431 413 b 453 400 446 413 453 408 b 439 388 453 393 446 388 z m 521 403 l 497 425 l 481 425 l 481 376 l 501 376 l 501 399 l 524 376 l 542 376 l 542 425 l 521 425 l 521 403 z "},"a":{"ha":736,"x_min":0,"x_max":0,"o":"m 672 383 l 672 667 l 351 667 b 58 394 190 667 58 544 l 58 0 l 203 0 l 203 246 l 424 246 b 424 246 424 246 424 246 b 503 215 454 246 482 235 b 526 160 514 204 526 186 l 526 0 l 672 0 l 672 160 b 604 318 672 218 647 275 b 422 392 557 365 492 392 l 203 390 l 203 394 b 351 522 203 464 269 522 l 526 522 l 526 383 z "},"b":{"ha":794,"x_min":0,"x_max":0,"o":"m 542 144 l 60 144 l 60 0 l 542 0 b 749 243 656 0 749 108 l 603 243 b 542 144 603 186 571 144 z m 749 469 b 557 667 749 578 663 667 l 60 667 l 60 522 l 557 522 b 603 469 583 522 603 499 b 557 417 603 440 583 417 l 60 417 l 60 272 l 557 272 b 749 469 663 272 749 360 z "},"c":{"ha":797,"x_min":0,"x_max":0,"o":"m 199 144 l 199 322 b 357 522 199 432 269 522 l 599 522 l 599 411 l 744 411 l 744 667 l 357 667 b 54 322 190 667 54 513 l 54 0 l 744 0 l 744 144 z "},"d":{"ha":806,"x_min":0,"x_max":0,"o":"m 67 667 l 67 522 l 67 242 l 211 242 l 211 522 l 611 522 l 611 385 b 413 144 611 253 522 144 l 67 144 l 67 0 l 413 0 b 757 385 603 0 757 172 l 757 667 z "},"e":{"ha":783,"x_min":0,"x_max":0,"o":"m 747 0 l 747 144 l 57 144 l 57 0 z m 257 667 b 56 465 146 667 56 576 l 56 349 l 56 218 l 517 218 l 517 364 l 200 364 l 200 465 b 257 522 200 497 225 522 l 749 522 l 749 667 z "},"f":{"ha":772,"x_min":0,"x_max":0,"o":"m 63 667 l 63 428 l 207 428 l 207 522 l 756 522 l 756 667 z m 63 219 l 63 0 l 207 0 l 207 219 b 264 276 207 251 233 276 l 524 276 l 524 421 l 264 421 b 63 219 153 421 63 331 z "},"g":{"ha":813,"x_min":0,"x_max":0,"o":"m 199 322 b 357 522 199 432 269 522 l 599 522 l 599 411 l 744 411 l 744 667 l 357 667 b 54 322 190 667 54 513 l 54 0 l 744 0 l 744 144 l 199 144 z m 744 197 l 744 343 l 324 343 l 324 197 z "},"h":{"ha":826,"x_min":0,"x_max":0,"o":"m 763 428 l 763 667 l 617 667 l 617 428 z m 561 421 l 269 421 l 269 276 l 561 276 b 617 219 592 276 617 251 l 617 0 l 763 0 l 763 219 b 561 421 763 331 671 421 z m 214 0 l 214 667 l 69 667 l 69 0 z "},"i":{"ha":285,"x_min":0,"x_max":0,"o":"m 214 0 l 214 667 l 69 667 l 69 0 z "},"j":{"ha":779,"x_min":0,"x_max":0,"o":"m 40 667 l 40 522 l 585 522 l 585 385 b 386 144 585 253 496 144 l 40 144 l 40 0 l 386 0 b 731 385 576 0 731 172 l 731 667 z "},"k":{"ha":825,"x_min":0,"x_max":0,"o":"m 763 0 l 763 250 l 617 250 l 617 0 z m 617 667 l 617 481 b 561 424 617 450 592 424 l 214 424 l 214 667 l 69 667 l 69 0 l 214 0 l 214 279 l 561 279 b 763 481 671 279 763 369 l 763 667 z "},"l":{"ha":764,"x_min":0,"x_max":0,"o":"m 199 144 l 199 322 b 357 522 199 432 269 522 l 357 667 b 54 322 190 667 54 513 l 54 0 l 744 0 l 744 144 z "},"m":{"ha":883,"x_min":0,"x_max":0,"o":"m 201 0 l 201 501 l 57 501 l 57 0 z m 307 667 l 200 667 l 200 522 l 307 522 b 368 460 340 522 368 494 l 368 0 l 513 0 l 513 460 b 307 667 513 574 421 667 z m 614 667 l 521 667 l 521 522 l 614 522 b 675 460 647 522 675 494 l 675 0 l 821 0 l 821 460 b 614 667 821 574 728 667 z "},"n":{"ha":726,"x_min":0,"x_max":0,"o":"m 197 0 l 197 443 l 53 443 l 53 0 z m 368 667 l 158 667 l 158 522 l 368 522 b 525 364 454 522 525 451 l 525 0 l 671 0 l 671 364 b 368 667 671 531 535 667 z "},"o":{"ha":806,"x_min":0,"x_max":0,"o":"m 224 668 b 222 668 224 668 224 668 b 111 622 181 668 142 653 b 65 511 82 593 65 553 l 65 0 l 411 0 b 756 385 601 0 756 172 l 756 667 z m 610 385 b 411 144 610 253 521 144 l 210 144 l 210 511 b 214 519 210 515 213 518 b 222 524 215 522 218 524 b 224 524 222 524 222 524 l 610 522 z "},"p":{"ha":782,"x_min":0,"x_max":0,"o":"m 563 667 l 65 667 l 65 522 l 563 522 b 608 469 589 522 608 499 b 563 417 608 440 589 417 l 65 417 l 65 272 l 67 272 l 67 0 l 211 0 l 211 272 l 563 272 b 754 469 668 272 754 360 b 563 667 754 578 668 667 z "},"q":{"ha":869,"x_min":0,"x_max":0,"o":"m 194 296 b 263 457 194 357 219 414 b 424 522 306 500 363 524 l 594 522 l 594 243 l 740 243 l 740 667 l 424 668 b 422 668 424 668 424 668 b 160 560 324 668 231 629 b 50 296 89 489 50 396 l 50 144 l 50 0 l 286 0 l 286 144 l 194 144 z m 844 0 l 844 144 l 393 144 l 393 0 z "},"r":{"ha":811,"x_min":0,"x_max":0,"o":"m 754 469 b 563 667 754 578 668 667 l 65 667 l 65 522 l 563 522 b 608 469 589 522 608 499 b 563 417 608 440 589 417 l 65 417 l 65 272 l 67 272 l 67 0 l 211 0 l 211 272 l 563 272 b 754 469 668 272 754 360 z m 754 0 l 754 250 l 608 250 l 608 0 z "},"s":{"ha":775,"x_min":0,"x_max":0,"o":"m 546 272 b 579 239 564 272 579 257 l 725 239 b 546 417 725 336 644 417 l 224 417 b 178 469 199 417 178 440 b 224 522 178 499 199 522 l 722 522 l 722 667 l 224 667 b 33 469 119 667 33 578 b 224 272 33 360 119 272 z m 725 0 l 725 144 l 106 144 l 106 0 z "},"t":{"ha":668,"x_min":0,"x_max":0,"o":"m 267 522 l 267 667 l 17 667 l 17 522 z m 514 667 b 271 424 379 667 271 558 l 271 0 l 415 0 l 415 424 b 514 522 415 478 460 522 l 650 522 l 650 667 z "},"u":{"ha":814,"x_min":0,"x_max":0,"o":"m 200 307 l 200 667 l 56 667 l 56 307 b 363 0 56 138 193 0 l 532 0 l 532 144 l 363 144 b 200 307 274 144 200 217 z m 743 0 l 743 667 l 599 667 l 599 0 z "},"v":{"ha":803,"x_min":0,"x_max":0,"o":"m 613 667 l 613 425 b 332 144 613 271 486 144 l 214 144 l 214 667 l 69 667 l 69 0 l 332 0 b 757 425 567 0 757 190 l 757 667 z "},"w":{"ha":814,"x_min":0,"x_max":0,"o":"m 610 667 l 610 297 b 535 106 610 226 583 158 l 640 7 b 754 297 714 86 754 189 l 754 667 z m 376 338 b 214 147 376 242 307 161 l 214 667 l 69 667 l 69 0 l 183 0 b 522 338 369 0 522 151 l 522 667 l 376 667 z "},"x":{"ha":694,"x_min":0,"x_max":0,"o":"m 629 428 l 629 667 l 485 667 l 485 428 z m 428 421 l 265 421 b 208 478 235 421 208 447 l 208 667 l 64 667 l 64 478 b 265 276 64 367 154 276 l 428 276 b 485 219 460 276 485 251 l 485 0 l 629 0 l 629 219 b 428 421 629 331 539 421 z m 208 0 l 208 269 l 64 269 l 64 0 z "},"y":{"ha":794,"x_min":0,"x_max":0,"o":"m 599 667 l 599 385 b 400 144 599 253 510 144 l 54 144 l 54 0 l 400 0 b 744 385 590 0 744 172 l 744 667 z m 285 257 l 483 257 l 483 403 l 285 403 b 199 488 238 403 199 440 l 199 667 l 54 667 l 54 488 b 285 257 54 361 157 257 z "},"z":{"ha":774,"x_min":0,"x_max":0,"o":"m 224 250 l 546 250 b 725 428 644 250 725 331 l 579 428 b 546 394 579 410 564 394 l 224 394 b 33 197 119 394 33 307 b 224 0 33 89 119 0 l 722 0 l 722 144 l 224 144 b 178 197 199 144 178 168 b 224 250 178 226 199 250 z m 725 522 l 725 667 l 106 667 l 106 522 z "},"{":{"ha":663,"x_min":0,"x_max":0,"o":"m 536 672 l 129 672 b 18 582 68 672 18 632 l 18 358 b 129 268 18 308 68 268 l 536 268 b 647 358 597 268 647 308 l 647 582 b 536 672 647 632 597 672 z m 624 358 b 536 288 624 319 585 288 l 129 288 b 42 358 82 288 42 319 l 42 582 b 129 653 42 621 82 653 l 536 653 b 624 582 585 653 624 621 l 624 358 z m 171 508 l 215 508 l 215 529 l 171 529 l 171 544 l 221 544 l 221 565 l 136 565 l 136 481 l 171 481 l 171 508 z m 268 503 l 278 503 l 296 481 l 333 481 l 311 507 b 331 533 324 513 331 521 b 283 565 331 553 313 565 l 232 565 l 232 481 l 268 481 l 268 503 z m 268 543 l 281 543 b 296 533 290 543 296 540 b 281 524 296 528 290 524 l 268 524 l 268 543 z m 432 503 l 379 503 l 379 514 l 424 514 l 424 535 l 379 535 l 379 544 l 431 544 l 431 565 l 344 565 l 344 481 l 432 481 l 432 503 z m 533 503 l 481 503 l 481 514 l 525 514 l 525 535 l 481 535 l 481 544 l 532 544 l 532 565 l 446 565 l 446 481 l 533 481 l 533 503 z m 156 396 l 142 425 l 119 425 l 146 376 l 165 376 l 192 425 l 171 425 l 156 396 z m 214 394 l 240 394 l 240 407 l 214 407 l 214 413 l 243 413 l 243 425 l 193 425 l 193 376 l 244 376 l 244 389 l 214 389 l 214 394 z m 310 407 b 282 425 310 418 300 425 l 253 425 l 253 376 l 274 376 l 274 389 l 279 389 l 289 376 l 311 376 l 299 392 b 310 407 306 394 310 400 z m 281 401 l 274 401 l 274 413 l 281 413 b 289 407 286 413 289 410 b 281 401 289 403 286 401 z m 336 411 b 343 414 336 413 338 414 b 361 410 349 414 354 413 l 367 422 b 343 426 361 425 351 426 b 315 410 325 426 315 419 b 349 390 315 392 349 396 b 342 388 349 389 347 388 b 321 392 335 388 326 389 l 314 379 b 340 375 321 376 331 375 b 369 392 360 375 369 382 b 336 411 369 410 336 404 z m 375 376 l 396 376 l 396 425 l 375 425 l 375 376 z m 439 426 b 404 400 418 426 404 415 b 439 375 404 386 418 375 b 474 400 458 375 474 386 b 439 426 474 415 458 426 z m 439 388 b 425 400 431 388 425 393 b 439 413 425 408 431 413 b 453 400 446 413 453 408 b 439 388 453 393 446 388 z m 521 403 l 497 425 l 481 425 l 481 376 l 501 376 l 501 399 l 524 376 l 542 376 l 542 425 l 521 425 l 521 403 z "},"|":{"ha":663,"x_min":0,"x_max":0,"o":"m 536 672 l 129 672 b 18 582 68 672 18 632 l 18 358 b 129 268 18 308 68 268 l 536 268 b 647 358 597 268 647 308 l 647 582 b 536 672 647 632 597 672 z m 624 358 b 536 288 624 319 585 288 l 129 288 b 42 358 82 288 42 319 l 42 582 b 129 653 42 621 82 653 l 536 653 b 624 582 585 653 624 621 l 624 358 z m 171 508 l 215 508 l 215 529 l 171 529 l 171 544 l 221 544 l 221 565 l 136 565 l 136 481 l 171 481 l 171 508 z m 268 503 l 278 503 l 296 481 l 333 481 l 311 507 b 331 533 324 513 331 521 b 283 565 331 553 313 565 l 232 565 l 232 481 l 268 481 l 268 503 z m 268 543 l 281 543 b 296 533 290 543 296 540 b 281 524 296 528 290 524 l 268 524 l 268 543 z m 432 503 l 379 503 l 379 514 l 424 514 l 424 535 l 379 535 l 379 544 l 431 544 l 431 565 l 344 565 l 344 481 l 432 481 l 432 503 z m 533 503 l 481 503 l 481 514 l 525 514 l 525 535 l 481 535 l 481 544 l 532 544 l 532 565 l 446 565 l 446 481 l 533 481 l 533 503 z m 156 396 l 142 425 l 119 425 l 146 376 l 165 376 l 192 425 l 171 425 l 156 396 z m 214 394 l 240 394 l 240 407 l 214 407 l 214 413 l 243 413 l 243 425 l 193 425 l 193 376 l 244 376 l 244 389 l 214 389 l 214 394 z m 310 407 b 282 425 310 418 300 425 l 253 425 l 253 376 l 274 376 l 274 389 l 279 389 l 289 376 l 311 376 l 299 392 b 310 407 306 394 310 400 z m 281 401 l 274 401 l 274 413 l 281 413 b 289 407 286 413 289 410 b 281 401 289 403 286 401 z m 336 411 b 343 414 336 413 338 414 b 361 410 349 414 354 413 l 367 422 b 343 426 361 425 351 426 b 315 410 325 426 315 419 b 349 390 315 392 349 396 b 342 388 349 389 347 388 b 321 392 335 388 326 389 l 314 379 b 340 375 321 376 331 375 b 369 392 360 375 369 382 b 336 411 369 410 336 404 z m 375 376 l 396 376 l 396 425 l 375 425 l 375 376 z m 439 426 b 404 400 418 426 404 415 b 439 375 404 386 418 375 b 474 400 458 375 474 386 b 439 426 474 415 458 426 z m 439 388 b 425 400 431 388 425 393 b 439 413 425 408 431 413 b 453 400 446 413 453 408 b 439 388 453 393 446 388 z m 521 403 l 497 425 l 481 425 l 481 376 l 501 376 l 501 399 l 524 376 l 542 376 l 542 425 l 521 425 l 521 403 z "},"}":{"ha":663,"x_min":0,"x_max":0,"o":"m 536 672 l 129 672 b 18 582 68 672 18 632 l 18 358 b 129 268 18 308 68 268 l 536 268 b 647 358 597 268 647 308 l 647 582 b 536 672 647 632 597 672 z m 624 358 b 536 288 624 319 585 288 l 129 288 b 42 358 82 288 42 319 l 42 582 b 129 653 42 621 82 653 l 536 653 b 624 582 585 653 624 621 l 624 358 z m 171 508 l 215 508 l 215 529 l 171 529 l 171 544 l 221 544 l 221 565 l 136 565 l 136 481 l 171 481 l 171 508 z m 268 503 l 278 503 l 296 481 l 333 481 l 311 507 b 331 533 324 513 331 521 b 283 565 331 553 313 565 l 232 565 l 232 481 l 268 481 l 268 503 z m 268 543 l 281 543 b 296 533 290 543 296 540 b 281 524 296 528 290 524 l 268 524 l 268 543 z m 432 503 l 379 503 l 379 514 l 424 514 l 424 535 l 379 535 l 379 544 l 431 544 l 431 565 l 344 565 l 344 481 l 432 481 l 432 503 z m 533 503 l 481 503 l 481 514 l 525 514 l 525 535 l 481 535 l 481 544 l 532 544 l 532 565 l 446 565 l 446 481 l 533 481 l 533 503 z m 156 396 l 142 425 l 119 425 l 146 376 l 165 376 l 192 425 l 171 425 l 156 396 z m 214 394 l 240 394 l 240 407 l 214 407 l 214 413 l 243 413 l 243 425 l 193 425 l 193 376 l 244 376 l 244 389 l 214 389 l 214 394 z m 310 407 b 282 425 310 418 300 425 l 253 425 l 253 376 l 274 376 l 274 389 l 279 389 l 289 376 l 311 376 l 299 392 b 310 407 306 394 310 400 z m 281 401 l 274 401 l 274 413 l 281 413 b 289 407 286 413 289 410 b 281 401 289 403 286 401 z m 336 411 b 343 414 336 413 338 414 b 361 410 349 414 354 413 l 367 422 b 343 426 361 425 351 426 b 315 410 325 426 315 419 b 349 390 315 392 349 396 b 342 388 349 389 347 388 b 321 392 335 388 326 389 l 314 379 b 340 375 321 376 331 375 b 369 392 360 375 369 382 b 336 411 369 410 336 404 z m 375 376 l 396 376 l 396 425 l 375 425 l 375 376 z m 439 426 b 404 400 418 426 404 415 b 439 375 404 386 418 375 b 474 400 458 375 474 386 b 439 426 474 415 458 426 z m 439 388 b 425 400 431 388 425 393 b 439 413 425 408 431 413 b 453 400 446 413 453 408 b 439 388 453 393 446 388 z m 521 403 l 497 425 l 481 425 l 481 376 l 501 376 l 501 399 l 524 376 l 542 376 l 542 425 l 521 425 l 521 403 z "},"~":{"ha":663,"x_min":0,"x_max":0,"o":"m 536 672 l 129 672 b 18 582 68 672 18 632 l 18 358 b 129 268 18 308 68 268 l 536 268 b 647 358 597 268 647 308 l 647 582 b 536 672 647 632 597 672 z m 624 358 b 536 288 624 319 585 288 l 129 288 b 42 358 82 288 42 319 l 42 582 b 129 653 42 621 82 653 l 536 653 b 624 582 585 653 624 621 l 624 358 z m 171 508 l 215 508 l 215 529 l 171 529 l 171 544 l 221 544 l 221 565 l 136 565 l 136 481 l 171 481 l 171 508 z m 268 503 l 278 503 l 296 481 l 333 481 l 311 507 b 331 533 324 513 331 521 b 283 565 331 553 313 565 l 232 565 l 232 481 l 268 481 l 268 503 z m 268 543 l 281 543 b 296 533 290 543 296 540 b 281 524 296 528 290 524 l 268 524 l 268 543 z m 432 503 l 379 503 l 379 514 l 424 514 l 424 535 l 379 535 l 379 544 l 431 544 l 431 565 l 344 565 l 344 481 l 432 481 l 432 503 z m 533 503 l 481 503 l 481 514 l 525 514 l 525 535 l 481 535 l 481 544 l 532 544 l 532 565 l 446 565 l 446 481 l 533 481 l 533 503 z m 156 396 l 142 425 l 119 425 l 146 376 l 165 376 l 192 425 l 171 425 l 156 396 z m 214 394 l 240 394 l 240 407 l 214 407 l 214 413 l 243 413 l 243 425 l 193 425 l 193 376 l 244 376 l 244 389 l 214 389 l 214 394 z m 310 407 b 282 425 310 418 300 425 l 253 425 l 253 376 l 274 376 l 274 389 l 279 389 l 289 376 l 311 376 l 299 392 b 310 407 306 394 310 400 z m 281 401 l 274 401 l 274 413 l 281 413 b 289 407 286 413 289 410 b 281 401 289 403 286 401 z m 336 411 b 343 414 336 413 338 414 b 361 410 349 414 354 413 l 367 422 b 343 426 361 425 351 426 b 315 410 325 426 315 419 b 349 390 315 392 349 396 b 342 388 349 389 347 388 b 321 392 335 388 326 389 l 314 379 b 340 375 321 376 331 375 b 369 392 360 375 369 382 b 336 411 369 410 336 404 z m 375 376 l 396 376 l 396 425 l 375 425 l 375 376 z m 439 426 b 404 400 418 426 404 415 b 439 375 404 386 418 375 b 474 400 458 375 474 386 b 439 426 474 415 458 426 z m 439 388 b 425 400 431 388 425 393 b 439 413 425 408 431 413 b 453 400 446 413 453 408 b 439 388 453 393 446 388 z m 521 403 l 497 425 l 481 425 l 481 376 l 501 376 l 501 399 l 524 376 l 542 376 l 542 425 l 521 425 l 521 403 z "},"":{"ha":401,"x_min":0,"x_max":0,"o":""},"":{"ha":663,"x_min":0,"x_max":0,"o":"m 536 672 l 129 672 b 18 582 68 672 18 632 l 18 358 b 129 268 18 308 68 268 l 536 268 b 647 358 597 268 647 308 l 647 582 b 536 672 647 632 597 672 z m 624 358 b 536 288 624 319 585 288 l 129 288 b 42 358 82 288 42 319 l 42 582 b 129 653 42 621 82 653 l 536 653 b 624 582 585 653 624 621 l 624 358 z m 171 508 l 215 508 l 215 529 l 171 529 l 171 544 l 221 544 l 221 565 l 136 565 l 136 481 l 171 481 l 171 508 z m 268 503 l 278 503 l 296 481 l 333 481 l 311 507 b 331 533 324 513 331 521 b 283 565 331 553 313 565 l 232 565 l 232 481 l 268 481 l 268 503 z m 268 543 l 281 543 b 296 533 290 543 296 540 b 281 524 296 528 290 524 l 268 524 l 268 543 z m 432 503 l 379 503 l 379 514 l 424 514 l 424 535 l 379 535 l 379 544 l 431 544 l 431 565 l 344 565 l 344 481 l 432 481 l 432 503 z m 533 503 l 481 503 l 481 514 l 525 514 l 525 535 l 481 535 l 481 544 l 532 544 l 532 565 l 446 565 l 446 481 l 533 481 l 533 503 z m 156 396 l 142 425 l 119 425 l 146 376 l 165 376 l 192 425 l 171 425 l 156 396 z m 214 394 l 240 394 l 240 407 l 214 407 l 214 413 l 243 413 l 243 425 l 193 425 l 193 376 l 244 376 l 244 389 l 214 389 l 214 394 z m 310 407 b 282 425 310 418 300 425 l 253 425 l 253 376 l 274 376 l 274 389 l 279 389 l 289 376 l 311 376 l 299 392 b 310 407 306 394 310 400 z m 281 401 l 274 401 l 274 413 l 281 413 b 289 407 286 413 289 410 b 281 401 289 403 286 401 z m 336 411 b 343 414 336 413 338 414 b 361 410 349 414 354 413 l 367 422 b 343 426 361 425 351 426 b 315 410 325 426 315 419 b 349 390 315 392 349 396 b 342 388 349 389 347 388 b 321 392 335 388 326 389 l 314 379 b 340 375 321 376 331 375 b 369 392 360 375 369 382 b 336 411 369 410 336 404 z m 375 376 l 396 376 l 396 425 l 375 425 l 375 376 z m 439 426 b 404 400 418 426 404 415 b 439 375 404 386 418 375 b 474 400 458 375 474 386 b 439 426 474 415 458 426 z m 439 388 b 425 400 431 388 425 393 b 439 413 425 408 431 413 b 453 400 446 413 453 408 b 439 388 453 393 446 388 z m 521 403 l 497 425 l 481 425 l 481 376 l 501 376 l 501 399 l 524 376 l 542 376 l 542 425 l 521 425 l 521 403 z "},"":{"ha":663,"x_min":0,"x_max":0,"o":"m 536 672 l 129 672 b 18 582 68 672 18 632 l 18 358 b 129 268 18 308 68 268 l 536 268 b 647 358 597 268 647 308 l 647 582 b 536 672 647 632 597 672 z m 624 358 b 536 288 624 319 585 288 l 129 288 b 42 358 82 288 42 319 l 42 582 b 129 653 42 621 82 653 l 536 653 b 624 582 585 653 624 621 l 624 358 z m 171 508 l 215 508 l 215 529 l 171 529 l 171 544 l 221 544 l 221 565 l 136 565 l 136 481 l 171 481 l 171 508 z m 268 503 l 278 503 l 296 481 l 333 481 l 311 507 b 331 533 324 513 331 521 b 283 565 331 553 313 565 l 232 565 l 232 481 l 268 481 l 268 503 z m 268 543 l 281 543 b 296 533 290 543 296 540 b 281 524 296 528 290 524 l 268 524 l 268 543 z m 432 503 l 379 503 l 379 514 l 424 514 l 424 535 l 379 535 l 379 544 l 431 544 l 431 565 l 344 565 l 344 481 l 432 481 l 432 503 z m 533 503 l 481 503 l 481 514 l 525 514 l 525 535 l 481 535 l 481 544 l 532 544 l 532 565 l 446 565 l 446 481 l 533 481 l 533 503 z m 156 396 l 142 425 l 119 425 l 146 376 l 165 376 l 192 425 l 171 425 l 156 396 z m 214 394 l 240 394 l 240 407 l 214 407 l 214 413 l 243 413 l 243 425 l 193 425 l 193 376 l 244 376 l 244 389 l 214 389 l 214 394 z m 310 407 b 282 425 310 418 300 425 l 253 425 l 253 376 l 274 376 l 274 389 l 279 389 l 289 376 l 311 376 l 299 392 b 310 407 306 394 310 400 z m 281 401 l 274 401 l 274 413 l 281 413 b 289 407 286 413 289 410 b 281 401 289 403 286 401 z m 336 411 b 343 414 336 413 338 414 b 361 410 349 414 354 413 l 367 422 b 343 426 361 425 351 426 b 315 410 325 426 315 419 b 349 390 315 392 349 396 b 342 388 349 389 347 388 b 321 392 335 388 326 389 l 314 379 b 340 375 321 376 331 375 b 369 392 360 375 369 382 b 336 411 369 410 336 404 z m 375 376 l 396 376 l 396 425 l 375 425 l 375 376 z m 439 426 b 404 400 418 426 404 415 b 439 375 404 386 418 375 b 474 400 458 375 474 386 b 439 426 474 415 458 426 z m 439 388 b 425 400 431 388 425 393 b 439 413 425 408 431 413 b 453 400 446 413 453 408 b 439 388 453 393 446 388 z m 521 403 l 497 425 l 481 425 l 481 376 l 501 376 l 501 399 l 524 376 l 542 376 l 542 425 l 521 425 l 521 403 z "},"":{"ha":0,"x_min":0,"x_max":0,"o":""},"":{"ha":663,"x_min":0,"x_max":0,"o":"m 536 672 l 129 672 b 18 582 68 672 18 632 l 18 358 b 129 268 18 308 68 268 l 536 268 b 647 358 597 268 647 308 l 647 582 b 536 672 647 632 597 672 z m 624 358 b 536 288 624 319 585 288 l 129 288 b 42 358 82 288 42 319 l 42 582 b 129 653 42 621 82 653 l 536 653 b 624 582 585 653 624 621 l 624 358 z m 171 508 l 215 508 l 215 529 l 171 529 l 171 544 l 221 544 l 221 565 l 136 565 l 136 481 l 171 481 l 171 508 z m 268 503 l 278 503 l 296 481 l 333 481 l 311 507 b 331 533 324 513 331 521 b 283 565 331 553 313 565 l 232 565 l 232 481 l 268 481 l 268 503 z m 268 543 l 281 543 b 296 533 290 543 296 540 b 281 524 296 528 290 524 l 268 524 l 268 543 z m 432 503 l 379 503 l 379 514 l 424 514 l 424 535 l 379 535 l 379 544 l 431 544 l 431 565 l 344 565 l 344 481 l 432 481 l 432 503 z m 533 503 l 481 503 l 481 514 l 525 514 l 525 535 l 481 535 l 481 544 l 532 544 l 532 565 l 446 565 l 446 481 l 533 481 l 533 503 z m 156 396 l 142 425 l 119 425 l 146 376 l 165 376 l 192 425 l 171 425 l 156 396 z m 214 394 l 240 394 l 240 407 l 214 407 l 214 413 l 243 413 l 243 425 l 193 425 l 193 376 l 244 376 l 244 389 l 214 389 l 214 394 z m 310 407 b 282 425 310 418 300 425 l 253 425 l 253 376 l 274 376 l 274 389 l 279 389 l 289 376 l 311 376 l 299 392 b 310 407 306 394 310 400 z m 281 401 l 274 401 l 274 413 l 281 413 b 289 407 286 413 289 410 b 281 401 289 403 286 401 z m 336 411 b 343 414 336 413 338 414 b 361 410 349 414 354 413 l 367 422 b 343 426 361 425 351 426 b 315 410 325 426 315 419 b 349 390 315 392 349 396 b 342 388 349 389 347 388 b 321 392 335 388 326 389 l 314 379 b 340 375 321 376 331 375 b 369 392 360 375 369 382 b 336 411 369 410 336 404 z m 375 376 l 396 376 l 396 425 l 375 425 l 375 376 z m 439 426 b 404 400 418 426 404 415 b 439 375 404 386 418 375 b 474 400 458 375 474 386 b 439 426 474 415 458 426 z m 439 388 b 425 400 431 388 425 393 b 439 413 425 408 431 413 b 453 400 446 413 453 408 b 439 388 453 393 446 388 z m 521 403 l 497 425 l 481 425 l 481 376 l 501 376 l 501 399 l 524 376 l 542 376 l 542 425 l 521 425 l 521 403 z "},"":{"ha":663,"x_min":0,"x_max":0,"o":"m 536 672 l 129 672 b 18 582 68 672 18 632 l 18 358 b 129 268 18 308 68 268 l 536 268 b 647 358 597 268 647 308 l 647 582 b 536 672 647 632 597 672 z m 624 358 b 536 288 624 319 585 288 l 129 288 b 42 358 82 288 42 319 l 42 582 b 129 653 42 621 82 653 l 536 653 b 624 582 585 653 624 621 l 624 358 z m 171 508 l 215 508 l 215 529 l 171 529 l 171 544 l 221 544 l 221 565 l 136 565 l 136 481 l 171 481 l 171 508 z m 268 503 l 278 503 l 296 481 l 333 481 l 311 507 b 331 533 324 513 331 521 b 283 565 331 553 313 565 l 232 565 l 232 481 l 268 481 l 268 503 z m 268 543 l 281 543 b 296 533 290 543 296 540 b 281 524 296 528 290 524 l 268 524 l 268 543 z m 432 503 l 379 503 l 379 514 l 424 514 l 424 535 l 379 535 l 379 544 l 431 544 l 431 565 l 344 565 l 344 481 l 432 481 l 432 503 z m 533 503 l 481 503 l 481 514 l 525 514 l 525 535 l 481 535 l 481 544 l 532 544 l 532 565 l 446 565 l 446 481 l 533 481 l 533 503 z m 156 396 l 142 425 l 119 425 l 146 376 l 165 376 l 192 425 l 171 425 l 156 396 z m 214 394 l 240 394 l 240 407 l 214 407 l 214 413 l 243 413 l 243 425 l 193 425 l 193 376 l 244 376 l 244 389 l 214 389 l 214 394 z m 310 407 b 282 425 310 418 300 425 l 253 425 l 253 376 l 274 376 l 274 389 l 279 389 l 289 376 l 311 376 l 299 392 b 310 407 306 394 310 400 z m 281 401 l 274 401 l 274 413 l 281 413 b 289 407 286 413 289 410 b 281 401 289 403 286 401 z m 336 411 b 343 414 336 413 338 414 b 361 410 349 414 354 413 l 367 422 b 343 426 361 425 351 426 b 315 410 325 426 315 419 b 349 390 315 392 349 396 b 342 388 349 389 347 388 b 321 392 335 388 326 389 l 314 379 b 340 375 321 376 331 375 b 369 392 360 375 369 382 b 336 411 369 410 336 404 z m 375 376 l 396 376 l 396 425 l 375 425 l 375 376 z m 439 426 b 404 400 418 426 404 415 b 439 375 404 386 418 375 b 474 400 458 375 474 386 b 439 426 474 415 458 426 z m 439 388 b 425 400 431 388 425 393 b 439 413 425 408 431 413 b 453 400 446 413 453 408 b 439 388 453 393 446 388 z m 521 403 l 497 425 l 481 425 l 481 376 l 501 376 l 501 399 l 524 376 l 542 376 l 542 425 l 521 425 l 521 403 z "},"":{"ha":663,"x_min":0,"x_max":0,"o":"m 536 672 l 129 672 b 18 582 68 672 18 632 l 18 358 b 129 268 18 308 68 268 l 536 268 b 647 358 597 268 647 308 l 647 582 b 536 672 647 632 597 672 z m 624 358 b 536 288 624 319 585 288 l 129 288 b 42 358 82 288 42 319 l 42 582 b 129 653 42 621 82 653 l 536 653 b 624 582 585 653 624 621 l 624 358 z m 171 508 l 215 508 l 215 529 l 171 529 l 171 544 l 221 544 l 221 565 l 136 565 l 136 481 l 171 481 l 171 508 z m 268 503 l 278 503 l 296 481 l 333 481 l 311 507 b 331 533 324 513 331 521 b 283 565 331 553 313 565 l 232 565 l 232 481 l 268 481 l 268 503 z m 268 543 l 281 543 b 296 533 290 543 296 540 b 281 524 296 528 290 524 l 268 524 l 268 543 z m 432 503 l 379 503 l 379 514 l 424 514 l 424 535 l 379 535 l 379 544 l 431 544 l 431 565 l 344 565 l 344 481 l 432 481 l 432 503 z m 533 503 l 481 503 l 481 514 l 525 514 l 525 535 l 481 535 l 481 544 l 532 544 l 532 565 l 446 565 l 446 481 l 533 481 l 533 503 z m 156 396 l 142 425 l 119 425 l 146 376 l 165 376 l 192 425 l 171 425 l 156 396 z m 214 394 l 240 394 l 240 407 l 214 407 l 214 413 l 243 413 l 243 425 l 193 425 l 193 376 l 244 376 l 244 389 l 214 389 l 214 394 z m 310 407 b 282 425 310 418 300 425 l 253 425 l 253 376 l 274 376 l 274 389 l 279 389 l 289 376 l 311 376 l 299 392 b 310 407 306 394 310 400 z m 281 401 l 274 401 l 274 413 l 281 413 b 289 407 286 413 289 410 b 281 401 289 403 286 401 z m 336 411 b 343 414 336 413 338 414 b 361 410 349 414 354 413 l 367 422 b 343 426 361 425 351 426 b 315 410 325 426 315 419 b 349 390 315 392 349 396 b 342 388 349 389 347 388 b 321 392 335 388 326 389 l 314 379 b 340 375 321 376 331 375 b 369 392 360 375 369 382 b 336 411 369 410 336 404 z m 375 376 l 396 376 l 396 425 l 375 425 l 375 376 z m 439 426 b 404 400 418 426 404 415 b 439 375 404 386 418 375 b 474 400 458 375 474 386 b 439 426 474 415 458 426 z m 439 388 b 425 400 431 388 425 393 b 439 413 425 408 431 413 b 453 400 446 413 453 408 b 439 388 453 393 446 388 z m 521 403 l 497 425 l 481 425 l 481 376 l 501 376 l 501 399 l 524 376 l 542 376 l 542 425 l 521 425 l 521 403 z "},"":{"ha":663,"x_min":0,"x_max":0,"o":"m 536 672 l 129 672 b 18 582 68 672 18 632 l 18 358 b 129 268 18 308 68 268 l 536 268 b 647 358 597 268 647 308 l 647 582 b 536 672 647 632 597 672 z m 624 358 b 536 288 624 319 585 288 l 129 288 b 42 358 82 288 42 319 l 42 582 b 129 653 42 621 82 653 l 536 653 b 624 582 585 653 624 621 l 624 358 z m 171 508 l 215 508 l 215 529 l 171 529 l 171 544 l 221 544 l 221 565 l 136 565 l 136 481 l 171 481 l 171 508 z m 268 503 l 278 503 l 296 481 l 333 481 l 311 507 b 331 533 324 513 331 521 b 283 565 331 553 313 565 l 232 565 l 232 481 l 268 481 l 268 503 z m 268 543 l 281 543 b 296 533 290 543 296 540 b 281 524 296 528 290 524 l 268 524 l 268 543 z m 432 503 l 379 503 l 379 514 l 424 514 l 424 535 l 379 535 l 379 544 l 431 544 l 431 565 l 344 565 l 344 481 l 432 481 l 432 503 z m 533 503 l 481 503 l 481 514 l 525 514 l 525 535 l 481 535 l 481 544 l 532 544 l 532 565 l 446 565 l 446 481 l 533 481 l 533 503 z m 156 396 l 142 425 l 119 425 l 146 376 l 165 376 l 192 425 l 171 425 l 156 396 z m 214 394 l 240 394 l 240 407 l 214 407 l 214 413 l 243 413 l 243 425 l 193 425 l 193 376 l 244 376 l 244 389 l 214 389 l 214 394 z m 310 407 b 282 425 310 418 300 425 l 253 425 l 253 376 l 274 376 l 274 389 l 279 389 l 289 376 l 311 376 l 299 392 b 310 407 306 394 310 400 z m 281 401 l 274 401 l 274 413 l 281 413 b 289 407 286 413 289 410 b 281 401 289 403 286 401 z m 336 411 b 343 414 336 413 338 414 b 361 410 349 414 354 413 l 367 422 b 343 426 361 425 351 426 b 315 410 325 426 315 419 b 349 390 315 392 349 396 b 342 388 349 389 347 388 b 321 392 335 388 326 389 l 314 379 b 340 375 321 376 331 375 b 369 392 360 375 369 382 b 336 411 369 410 336 404 z m 375 376 l 396 376 l 396 425 l 375 425 l 375 376 z m 439 426 b 404 400 418 426 404 415 b 439 375 404 386 418 375 b 474 400 458 375 474 386 b 439 426 474 415 458 426 z m 439 388 b 425 400 431 388 425 393 b 439 413 425 408 431 413 b 453 400 446 413 453 408 b 439 388 453 393 446 388 z m 521 403 l 497 425 l 481 425 l 481 376 l 501 376 l 501 399 l 524 376 l 542 376 l 542 425 l 521 425 l 521 403 z "},"":{"ha":663,"x_min":0,"x_max":0,"o":"m 536 672 l 129 672 b 18 582 68 672 18 632 l 18 358 b 129 268 18 308 68 268 l 536 268 b 647 358 597 268 647 308 l 647 582 b 536 672 647 632 597 672 z m 624 358 b 536 288 624 319 585 288 l 129 288 b 42 358 82 288 42 319 l 42 582 b 129 653 42 621 82 653 l 536 653 b 624 582 585 653 624 621 l 624 358 z m 171 508 l 215 508 l 215 529 l 171 529 l 171 544 l 221 544 l 221 565 l 136 565 l 136 481 l 171 481 l 171 508 z m 268 503 l 278 503 l 296 481 l 333 481 l 311 507 b 331 533 324 513 331 521 b 283 565 331 553 313 565 l 232 565 l 232 481 l 268 481 l 268 503 z m 268 543 l 281 543 b 296 533 290 543 296 540 b 281 524 296 528 290 524 l 268 524 l 268 543 z m 432 503 l 379 503 l 379 514 l 424 514 l 424 535 l 379 535 l 379 544 l 431 544 l 431 565 l 344 565 l 344 481 l 432 481 l 432 503 z m 533 503 l 481 503 l 481 514 l 525 514 l 525 535 l 481 535 l 481 544 l 532 544 l 532 565 l 446 565 l 446 481 l 533 481 l 533 503 z m 156 396 l 142 425 l 119 425 l 146 376 l 165 376 l 192 425 l 171 425 l 156 396 z m 214 394 l 240 394 l 240 407 l 214 407 l 214 413 l 243 413 l 243 425 l 193 425 l 193 376 l 244 376 l 244 389 l 214 389 l 214 394 z m 310 407 b 282 425 310 418 300 425 l 253 425 l 253 376 l 274 376 l 274 389 l 279 389 l 289 376 l 311 376 l 299 392 b 310 407 306 394 310 400 z m 281 401 l 274 401 l 274 413 l 281 413 b 289 407 286 413 289 410 b 281 401 289 403 286 401 z m 336 411 b 343 414 336 413 338 414 b 361 410 349 414 354 413 l 367 422 b 343 426 361 425 351 426 b 315 410 325 426 315 419 b 349 390 315 392 349 396 b 342 388 349 389 347 388 b 321 392 335 388 326 389 l 314 379 b 340 375 321 376 331 375 b 369 392 360 375 369 382 b 336 411 369 410 336 404 z m 375 376 l 396 376 l 396 425 l 375 425 l 375 376 z m 439 426 b 404 400 418 426 404 415 b 439 375 404 386 418 375 b 474 400 458 375 474 386 b 439 426 474 415 458 426 z m 439 388 b 425 400 431 388 425 393 b 439 413 425 408 431 413 b 453 400 446 413 453 408 b 439 388 453 393 446 388 z m 521 403 l 497 425 l 481 425 l 481 376 l 501 376 l 501 399 l 524 376 l 542 376 l 542 425 l 521 425 l 521 403 z "},"":{"ha":663,"x_min":0,"x_max":0,"o":"m 536 672 l 129 672 b 18 582 68 672 18 632 l 18 358 b 129 268 18 308 68 268 l 536 268 b 647 358 597 268 647 308 l 647 582 b 536 672 647 632 597 672 z m 624 358 b 536 288 624 319 585 288 l 129 288 b 42 358 82 288 42 319 l 42 582 b 129 653 42 621 82 653 l 536 653 b 624 582 585 653 624 621 l 624 358 z m 171 508 l 215 508 l 215 529 l 171 529 l 171 544 l 221 544 l 221 565 l 136 565 l 136 481 l 171 481 l 171 508 z m 268 503 l 278 503 l 296 481 l 333 481 l 311 507 b 331 533 324 513 331 521 b 283 565 331 553 313 565 l 232 565 l 232 481 l 268 481 l 268 503 z m 268 543 l 281 543 b 296 533 290 543 296 540 b 281 524 296 528 290 524 l 268 524 l 268 543 z m 432 503 l 379 503 l 379 514 l 424 514 l 424 535 l 379 535 l 379 544 l 431 544 l 431 565 l 344 565 l 344 481 l 432 481 l 432 503 z m 533 503 l 481 503 l 481 514 l 525 514 l 525 535 l 481 535 l 481 544 l 532 544 l 532 565 l 446 565 l 446 481 l 533 481 l 533 503 z m 156 396 l 142 425 l 119 425 l 146 376 l 165 376 l 192 425 l 171 425 l 156 396 z m 214 394 l 240 394 l 240 407 l 214 407 l 214 413 l 243 413 l 243 425 l 193 425 l 193 376 l 244 376 l 244 389 l 214 389 l 214 394 z m 310 407 b 282 425 310 418 300 425 l 253 425 l 253 376 l 274 376 l 274 389 l 279 389 l 289 376 l 311 376 l 299 392 b 310 407 306 394 310 400 z m 281 401 l 274 401 l 274 413 l 281 413 b 289 407 286 413 289 410 b 281 401 289 403 286 401 z m 336 411 b 343 414 336 413 338 414 b 361 410 349 414 354 413 l 367 422 b 343 426 361 425 351 426 b 315 410 325 426 315 419 b 349 390 315 392 349 396 b 342 388 349 389 347 388 b 321 392 335 388 326 389 l 314 379 b 340 375 321 376 331 375 b 369 392 360 375 369 382 b 336 411 369 410 336 404 z m 375 376 l 396 376 l 396 425 l 375 425 l 375 376 z m 439 426 b 404 400 418 426 404 415 b 439 375 404 386 418 375 b 474 400 458 375 474 386 b 439 426 474 415 458 426 z m 439 388 b 425 400 431 388 425 393 b 439 413 425 408 431 413 b 453 400 446 413 453 408 b 439 388 453 393 446 388 z m 521 403 l 497 425 l 481 425 l 481 376 l 501 376 l 501 399 l 524 376 l 542 376 l 542 425 l 521 425 l 521 403 z "},"":{"ha":663,"x_min":0,"x_max":0,"o":"m 536 672 l 129 672 b 18 582 68 672 18 632 l 18 358 b 129 268 18 308 68 268 l 536 268 b 647 358 597 268 647 308 l 647 582 b 536 672 647 632 597 672 z m 624 358 b 536 288 624 319 585 288 l 129 288 b 42 358 82 288 42 319 l 42 582 b 129 653 42 621 82 653 l 536 653 b 624 582 585 653 624 621 l 624 358 z m 171 508 l 215 508 l 215 529 l 171 529 l 171 544 l 221 544 l 221 565 l 136 565 l 136 481 l 171 481 l 171 508 z m 268 503 l 278 503 l 296 481 l 333 481 l 311 507 b 331 533 324 513 331 521 b 283 565 331 553 313 565 l 232 565 l 232 481 l 268 481 l 268 503 z m 268 543 l 281 543 b 296 533 290 543 296 540 b 281 524 296 528 290 524 l 268 524 l 268 543 z m 432 503 l 379 503 l 379 514 l 424 514 l 424 535 l 379 535 l 379 544 l 431 544 l 431 565 l 344 565 l 344 481 l 432 481 l 432 503 z m 533 503 l 481 503 l 481 514 l 525 514 l 525 535 l 481 535 l 481 544 l 532 544 l 532 565 l 446 565 l 446 481 l 533 481 l 533 503 z m 156 396 l 142 425 l 119 425 l 146 376 l 165 376 l 192 425 l 171 425 l 156 396 z m 214 394 l 240 394 l 240 407 l 214 407 l 214 413 l 243 413 l 243 425 l 193 425 l 193 376 l 244 376 l 244 389 l 214 389 l 214 394 z m 310 407 b 282 425 310 418 300 425 l 253 425 l 253 376 l 274 376 l 274 389 l 279 389 l 289 376 l 311 376 l 299 392 b 310 407 306 394 310 400 z m 281 401 l 274 401 l 274 413 l 281 413 b 289 407 286 413 289 410 b 281 401 289 403 286 401 z m 336 411 b 343 414 336 413 338 414 b 361 410 349 414 354 413 l 367 422 b 343 426 361 425 351 426 b 315 410 325 426 315 419 b 349 390 315 392 349 396 b 342 388 349 389 347 388 b 321 392 335 388 326 389 l 314 379 b 340 375 321 376 331 375 b 369 392 360 375 369 382 b 336 411 369 410 336 404 z m 375 376 l 396 376 l 396 425 l 375 425 l 375 376 z m 439 426 b 404 400 418 426 404 415 b 439 375 404 386 418 375 b 474 400 458 375 474 386 b 439 426 474 415 458 426 z m 439 388 b 425 400 431 388 425 393 b 439 413 425 408 431 413 b 453 400 446 413 453 408 b 439 388 453 393 446 388 z m 521 403 l 497 425 l 481 425 l 481 376 l 501 376 l 501 399 l 524 376 l 542 376 l 542 425 l 521 425 l 521 403 z "},"":{"ha":663,"x_min":0,"x_max":0,"o":"m 536 672 l 129 672 b 18 582 68 672 18 632 l 18 358 b 129 268 18 308 68 268 l 536 268 b 647 358 597 268 647 308 l 647 582 b 536 672 647 632 597 672 z m 624 358 b 536 288 624 319 585 288 l 129 288 b 42 358 82 288 42 319 l 42 582 b 129 653 42 621 82 653 l 536 653 b 624 582 585 653 624 621 l 624 358 z m 171 508 l 215 508 l 215 529 l 171 529 l 171 544 l 221 544 l 221 565 l 136 565 l 136 481 l 171 481 l 171 508 z m 268 503 l 278 503 l 296 481 l 333 481 l 311 507 b 331 533 324 513 331 521 b 283 565 331 553 313 565 l 232 565 l 232 481 l 268 481 l 268 503 z m 268 543 l 281 543 b 296 533 290 543 296 540 b 281 524 296 528 290 524 l 268 524 l 268 543 z m 432 503 l 379 503 l 379 514 l 424 514 l 424 535 l 379 535 l 379 544 l 431 544 l 431 565 l 344 565 l 344 481 l 432 481 l 432 503 z m 533 503 l 481 503 l 481 514 l 525 514 l 525 535 l 481 535 l 481 544 l 532 544 l 532 565 l 446 565 l 446 481 l 533 481 l 533 503 z m 156 396 l 142 425 l 119 425 l 146 376 l 165 376 l 192 425 l 171 425 l 156 396 z m 214 394 l 240 394 l 240 407 l 214 407 l 214 413 l 243 413 l 243 425 l 193 425 l 193 376 l 244 376 l 244 389 l 214 389 l 214 394 z m 310 407 b 282 425 310 418 300 425 l 253 425 l 253 376 l 274 376 l 274 389 l 279 389 l 289 376 l 311 376 l 299 392 b 310 407 306 394 310 400 z m 281 401 l 274 401 l 274 413 l 281 413 b 289 407 286 413 289 410 b 281 401 289 403 286 401 z m 336 411 b 343 414 336 413 338 414 b 361 410 349 414 354 413 l 367 422 b 343 426 361 425 351 426 b 315 410 325 426 315 419 b 349 390 315 392 349 396 b 342 388 349 389 347 388 b 321 392 335 388 326 389 l 314 379 b 340 375 321 376 331 375 b 369 392 360 375 369 382 b 336 411 369 410 336 404 z m 375 376 l 396 376 l 396 425 l 375 425 l 375 376 z m 439 426 b 404 400 418 426 404 415 b 439 375 404 386 418 375 b 474 400 458 375 474 386 b 439 426 474 415 458 426 z m 439 388 b 425 400 431 388 425 393 b 439 413 425 408 431 413 b 453 400 446 413 453 408 b 439 388 453 393 446 388 z m 521 403 l 497 425 l 481 425 l 481 376 l 501 376 l 501 399 l 524 376 l 542 376 l 542 425 l 521 425 l 521 403 z "},"":{"ha":663,"x_min":0,"x_max":0,"o":"m 536 672 l 129 672 b 18 582 68 672 18 632 l 18 358 b 129 268 18 308 68 268 l 536 268 b 647 358 597 268 647 308 l 647 582 b 536 672 647 632 597 672 z m 624 358 b 536 288 624 319 585 288 l 129 288 b 42 358 82 288 42 319 l 42 582 b 129 653 42 621 82 653 l 536 653 b 624 582 585 653 624 621 l 624 358 z m 171 508 l 215 508 l 215 529 l 171 529 l 171 544 l 221 544 l 221 565 l 136 565 l 136 481 l 171 481 l 171 508 z m 268 503 l 278 503 l 296 481 l 333 481 l 311 507 b 331 533 324 513 331 521 b 283 565 331 553 313 565 l 232 565 l 232 481 l 268 481 l 268 503 z m 268 543 l 281 543 b 296 533 290 543 296 540 b 281 524 296 528 290 524 l 268 524 l 268 543 z m 432 503 l 379 503 l 379 514 l 424 514 l 424 535 l 379 535 l 379 544 l 431 544 l 431 565 l 344 565 l 344 481 l 432 481 l 432 503 z m 533 503 l 481 503 l 481 514 l 525 514 l 525 535 l 481 535 l 481 544 l 532 544 l 532 565 l 446 565 l 446 481 l 533 481 l 533 503 z m 156 396 l 142 425 l 119 425 l 146 376 l 165 376 l 192 425 l 171 425 l 156 396 z m 214 394 l 240 394 l 240 407 l 214 407 l 214 413 l 243 413 l 243 425 l 193 425 l 193 376 l 244 376 l 244 389 l 214 389 l 214 394 z m 310 407 b 282 425 310 418 300 425 l 253 425 l 253 376 l 274 376 l 274 389 l 279 389 l 289 376 l 311 376 l 299 392 b 310 407 306 394 310 400 z m 281 401 l 274 401 l 274 413 l 281 413 b 289 407 286 413 289 410 b 281 401 289 403 286 401 z m 336 411 b 343 414 336 413 338 414 b 361 410 349 414 354 413 l 367 422 b 343 426 361 425 351 426 b 315 410 325 426 315 419 b 349 390 315 392 349 396 b 342 388 349 389 347 388 b 321 392 335 388 326 389 l 314 379 b 340 375 321 376 331 375 b 369 392 360 375 369 382 b 336 411 369 410 336 404 z m 375 376 l 396 376 l 396 425 l 375 425 l 375 376 z m 439 426 b 404 400 418 426 404 415 b 439 375 404 386 418 375 b 474 400 458 375 474 386 b 439 426 474 415 458 426 z m 439 388 b 425 400 431 388 425 393 b 439 413 425 408 431 413 b 453 400 446 413 453 408 b 439 388 453 393 446 388 z m 521 403 l 497 425 l 481 425 l 481 376 l 501 376 l 501 399 l 524 376 l 542 376 l 542 425 l 521 425 l 521 403 z "},"":{"ha":663,"x_min":0,"x_max":0,"o":"m 536 672 l 129 672 b 18 582 68 672 18 632 l 18 358 b 129 268 18 308 68 268 l 536 268 b 647 358 597 268 647 308 l 647 582 b 536 672 647 632 597 672 z m 624 358 b 536 288 624 319 585 288 l 129 288 b 42 358 82 288 42 319 l 42 582 b 129 653 42 621 82 653 l 536 653 b 624 582 585 653 624 621 l 624 358 z m 171 508 l 215 508 l 215 529 l 171 529 l 171 544 l 221 544 l 221 565 l 136 565 l 136 481 l 171 481 l 171 508 z m 268 503 l 278 503 l 296 481 l 333 481 l 311 507 b 331 533 324 513 331 521 b 283 565 331 553 313 565 l 232 565 l 232 481 l 268 481 l 268 503 z m 268 543 l 281 543 b 296 533 290 543 296 540 b 281 524 296 528 290 524 l 268 524 l 268 543 z m 432 503 l 379 503 l 379 514 l 424 514 l 424 535 l 379 535 l 379 544 l 431 544 l 431 565 l 344 565 l 344 481 l 432 481 l 432 503 z m 533 503 l 481 503 l 481 514 l 525 514 l 525 535 l 481 535 l 481 544 l 532 544 l 532 565 l 446 565 l 446 481 l 533 481 l 533 503 z m 156 396 l 142 425 l 119 425 l 146 376 l 165 376 l 192 425 l 171 425 l 156 396 z m 214 394 l 240 394 l 240 407 l 214 407 l 214 413 l 243 413 l 243 425 l 193 425 l 193 376 l 244 376 l 244 389 l 214 389 l 214 394 z m 310 407 b 282 425 310 418 300 425 l 253 425 l 253 376 l 274 376 l 274 389 l 279 389 l 289 376 l 311 376 l 299 392 b 310 407 306 394 310 400 z m 281 401 l 274 401 l 274 413 l 281 413 b 289 407 286 413 289 410 b 281 401 289 403 286 401 z m 336 411 b 343 414 336 413 338 414 b 361 410 349 414 354 413 l 367 422 b 343 426 361 425 351 426 b 315 410 325 426 315 419 b 349 390 315 392 349 396 b 342 388 349 389 347 388 b 321 392 335 388 326 389 l 314 379 b 340 375 321 376 331 375 b 369 392 360 375 369 382 b 336 411 369 410 336 404 z m 375 376 l 396 376 l 396 425 l 375 425 l 375 376 z m 439 426 b 404 400 418 426 404 415 b 439 375 404 386 418 375 b 474 400 458 375 474 386 b 439 426 474 415 458 426 z m 439 388 b 425 400 431 388 425 393 b 439 413 425 408 431 413 b 453 400 446 413 453 408 b 439 388 453 393 446 388 z m 521 403 l 497 425 l 481 425 l 481 376 l 501 376 l 501 399 l 524 376 l 542 376 l 542 425 l 521 425 l 521 403 z "},"":{"ha":663,"x_min":0,"x_max":0,"o":"m 536 672 l 129 672 b 18 582 68 672 18 632 l 18 358 b 129 268 18 308 68 268 l 536 268 b 647 358 597 268 647 308 l 647 582 b 536 672 647 632 597 672 z m 624 358 b 536 288 624 319 585 288 l 129 288 b 42 358 82 288 42 319 l 42 582 b 129 653 42 621 82 653 l 536 653 b 624 582 585 653 624 621 l 624 358 z m 171 508 l 215 508 l 215 529 l 171 529 l 171 544 l 221 544 l 221 565 l 136 565 l 136 481 l 171 481 l 171 508 z m 268 503 l 278 503 l 296 481 l 333 481 l 311 507 b 331 533 324 513 331 521 b 283 565 331 553 313 565 l 232 565 l 232 481 l 268 481 l 268 503 z m 268 543 l 281 543 b 296 533 290 543 296 540 b 281 524 296 528 290 524 l 268 524 l 268 543 z m 432 503 l 379 503 l 379 514 l 424 514 l 424 535 l 379 535 l 379 544 l 431 544 l 431 565 l 344 565 l 344 481 l 432 481 l 432 503 z m 533 503 l 481 503 l 481 514 l 525 514 l 525 535 l 481 535 l 481 544 l 532 544 l 532 565 l 446 565 l 446 481 l 533 481 l 533 503 z m 156 396 l 142 425 l 119 425 l 146 376 l 165 376 l 192 425 l 171 425 l 156 396 z m 214 394 l 240 394 l 240 407 l 214 407 l 214 413 l 243 413 l 243 425 l 193 425 l 193 376 l 244 376 l 244 389 l 214 389 l 214 394 z m 310 407 b 282 425 310 418 300 425 l 253 425 l 253 376 l 274 376 l 274 389 l 279 389 l 289 376 l 311 376 l 299 392 b 310 407 306 394 310 400 z m 281 401 l 274 401 l 274 413 l 281 413 b 289 407 286 413 289 410 b 281 401 289 403 286 401 z m 336 411 b 343 414 336 413 338 414 b 361 410 349 414 354 413 l 367 422 b 343 426 361 425 351 426 b 315 410 325 426 315 419 b 349 390 315 392 349 396 b 342 388 349 389 347 388 b 321 392 335 388 326 389 l 314 379 b 340 375 321 376 331 375 b 369 392 360 375 369 382 b 336 411 369 410 336 404 z m 375 376 l 396 376 l 396 425 l 375 425 l 375 376 z m 439 426 b 404 400 418 426 404 415 b 439 375 404 386 418 375 b 474 400 458 375 474 386 b 439 426 474 415 458 426 z m 439 388 b 425 400 431 388 425 393 b 439 413 425 408 431 413 b 453 400 446 413 453 408 b 439 388 453 393 446 388 z m 521 403 l 497 425 l 481 425 l 481 376 l 501 376 l 501 399 l 524 376 l 542 376 l 542 425 l 521 425 l 521 403 z "},"":{"ha":663,"x_min":0,"x_max":0,"o":"m 536 672 l 129 672 b 18 582 68 672 18 632 l 18 358 b 129 268 18 308 68 268 l 536 268 b 647 358 597 268 647 308 l 647 582 b 536 672 647 632 597 672 z m 624 358 b 536 288 624 319 585 288 l 129 288 b 42 358 82 288 42 319 l 42 582 b 129 653 42 621 82 653 l 536 653 b 624 582 585 653 624 621 l 624 358 z m 171 508 l 215 508 l 215 529 l 171 529 l 171 544 l 221 544 l 221 565 l 136 565 l 136 481 l 171 481 l 171 508 z m 268 503 l 278 503 l 296 481 l 333 481 l 311 507 b 331 533 324 513 331 521 b 283 565 331 553 313 565 l 232 565 l 232 481 l 268 481 l 268 503 z m 268 543 l 281 543 b 296 533 290 543 296 540 b 281 524 296 528 290 524 l 268 524 l 268 543 z m 432 503 l 379 503 l 379 514 l 424 514 l 424 535 l 379 535 l 379 544 l 431 544 l 431 565 l 344 565 l 344 481 l 432 481 l 432 503 z m 533 503 l 481 503 l 481 514 l 525 514 l 525 535 l 481 535 l 481 544 l 532 544 l 532 565 l 446 565 l 446 481 l 533 481 l 533 503 z m 156 396 l 142 425 l 119 425 l 146 376 l 165 376 l 192 425 l 171 425 l 156 396 z m 214 394 l 240 394 l 240 407 l 214 407 l 214 413 l 243 413 l 243 425 l 193 425 l 193 376 l 244 376 l 244 389 l 214 389 l 214 394 z m 310 407 b 282 425 310 418 300 425 l 253 425 l 253 376 l 274 376 l 274 389 l 279 389 l 289 376 l 311 376 l 299 392 b 310 407 306 394 310 400 z m 281 401 l 274 401 l 274 413 l 281 413 b 289 407 286 413 289 410 b 281 401 289 403 286 401 z m 336 411 b 343 414 336 413 338 414 b 361 410 349 414 354 413 l 367 422 b 343 426 361 425 351 426 b 315 410 325 426 315 419 b 349 390 315 392 349 396 b 342 388 349 389 347 388 b 321 392 335 388 326 389 l 314 379 b 340 375 321 376 331 375 b 369 392 360 375 369 382 b 336 411 369 410 336 404 z m 375 376 l 396 376 l 396 425 l 375 425 l 375 376 z m 439 426 b 404 400 418 426 404 415 b 439 375 404 386 418 375 b 474 400 458 375 474 386 b 439 426 474 415 458 426 z m 439 388 b 425 400 431 388 425 393 b 439 413 425 408 431 413 b 453 400 446 413 453 408 b 439 388 453 393 446 388 z m 521 403 l 497 425 l 481 425 l 481 376 l 501 376 l 501 399 l 524 376 l 542 376 l 542 425 l 521 425 l 521 403 z "},"":{"ha":663,"x_min":0,"x_max":0,"o":"m 536 672 l 129 672 b 18 582 68 672 18 632 l 18 358 b 129 268 18 308 68 268 l 536 268 b 647 358 597 268 647 308 l 647 582 b 536 672 647 632 597 672 z m 624 358 b 536 288 624 319 585 288 l 129 288 b 42 358 82 288 42 319 l 42 582 b 129 653 42 621 82 653 l 536 653 b 624 582 585 653 624 621 l 624 358 z m 171 508 l 215 508 l 215 529 l 171 529 l 171 544 l 221 544 l 221 565 l 136 565 l 136 481 l 171 481 l 171 508 z m 268 503 l 278 503 l 296 481 l 333 481 l 311 507 b 331 533 324 513 331 521 b 283 565 331 553 313 565 l 232 565 l 232 481 l 268 481 l 268 503 z m 268 543 l 281 543 b 296 533 290 543 296 540 b 281 524 296 528 290 524 l 268 524 l 268 543 z m 432 503 l 379 503 l 379 514 l 424 514 l 424 535 l 379 535 l 379 544 l 431 544 l 431 565 l 344 565 l 344 481 l 432 481 l 432 503 z m 533 503 l 481 503 l 481 514 l 525 514 l 525 535 l 481 535 l 481 544 l 532 544 l 532 565 l 446 565 l 446 481 l 533 481 l 533 503 z m 156 396 l 142 425 l 119 425 l 146 376 l 165 376 l 192 425 l 171 425 l 156 396 z m 214 394 l 240 394 l 240 407 l 214 407 l 214 413 l 243 413 l 243 425 l 193 425 l 193 376 l 244 376 l 244 389 l 214 389 l 214 394 z m 310 407 b 282 425 310 418 300 425 l 253 425 l 253 376 l 274 376 l 274 389 l 279 389 l 289 376 l 311 376 l 299 392 b 310 407 306 394 310 400 z m 281 401 l 274 401 l 274 413 l 281 413 b 289 407 286 413 289 410 b 281 401 289 403 286 401 z m 336 411 b 343 414 336 413 338 414 b 361 410 349 414 354 413 l 367 422 b 343 426 361 425 351 426 b 315 410 325 426 315 419 b 349 390 315 392 349 396 b 342 388 349 389 347 388 b 321 392 335 388 326 389 l 314 379 b 340 375 321 376 331 375 b 369 392 360 375 369 382 b 336 411 369 410 336 404 z m 375 376 l 396 376 l 396 425 l 375 425 l 375 376 z m 439 426 b 404 400 418 426 404 415 b 439 375 404 386 418 375 b 474 400 458 375 474 386 b 439 426 474 415 458 426 z m 439 388 b 425 400 431 388 425 393 b 439 413 425 408 431 413 b 453 400 446 413 453 408 b 439 388 453 393 446 388 z m 521 403 l 497 425 l 481 425 l 481 376 l 501 376 l 501 399 l 524 376 l 542 376 l 542 425 l 521 425 l 521 403 z "},"":{"ha":663,"x_min":0,"x_max":0,"o":"m 536 672 l 129 672 b 18 582 68 672 18 632 l 18 358 b 129 268 18 308 68 268 l 536 268 b 647 358 597 268 647 308 l 647 582 b 536 672 647 632 597 672 z m 624 358 b 536 288 624 319 585 288 l 129 288 b 42 358 82 288 42 319 l 42 582 b 129 653 42 621 82 653 l 536 653 b 624 582 585 653 624 621 l 624 358 z m 171 508 l 215 508 l 215 529 l 171 529 l 171 544 l 221 544 l 221 565 l 136 565 l 136 481 l 171 481 l 171 508 z m 268 503 l 278 503 l 296 481 l 333 481 l 311 507 b 331 533 324 513 331 521 b 283 565 331 553 313 565 l 232 565 l 232 481 l 268 481 l 268 503 z m 268 543 l 281 543 b 296 533 290 543 296 540 b 281 524 296 528 290 524 l 268 524 l 268 543 z m 432 503 l 379 503 l 379 514 l 424 514 l 424 535 l 379 535 l 379 544 l 431 544 l 431 565 l 344 565 l 344 481 l 432 481 l 432 503 z m 533 503 l 481 503 l 481 514 l 525 514 l 525 535 l 481 535 l 481 544 l 532 544 l 532 565 l 446 565 l 446 481 l 533 481 l 533 503 z m 156 396 l 142 425 l 119 425 l 146 376 l 165 376 l 192 425 l 171 425 l 156 396 z m 214 394 l 240 394 l 240 407 l 214 407 l 214 413 l 243 413 l 243 425 l 193 425 l 193 376 l 244 376 l 244 389 l 214 389 l 214 394 z m 310 407 b 282 425 310 418 300 425 l 253 425 l 253 376 l 274 376 l 274 389 l 279 389 l 289 376 l 311 376 l 299 392 b 310 407 306 394 310 400 z m 281 401 l 274 401 l 274 413 l 281 413 b 289 407 286 413 289 410 b 281 401 289 403 286 401 z m 336 411 b 343 414 336 413 338 414 b 361 410 349 414 354 413 l 367 422 b 343 426 361 425 351 426 b 315 410 325 426 315 419 b 349 390 315 392 349 396 b 342 388 349 389 347 388 b 321 392 335 388 326 389 l 314 379 b 340 375 321 376 331 375 b 369 392 360 375 369 382 b 336 411 369 410 336 404 z m 375 376 l 396 376 l 396 425 l 375 425 l 375 376 z m 439 426 b 404 400 418 426 404 415 b 439 375 404 386 418 375 b 474 400 458 375 474 386 b 439 426 474 415 458 426 z m 439 388 b 425 400 431 388 425 393 b 439 413 425 408 431 413 b 453 400 446 413 453 408 b 439 388 453 393 446 388 z m 521 403 l 497 425 l 481 425 l 481 376 l 501 376 l 501 399 l 524 376 l 542 376 l 542 425 l 521 425 l 521 403 z "},"":{"ha":663,"x_min":0,"x_max":0,"o":"m 536 672 l 129 672 b 18 582 68 672 18 632 l 18 358 b 129 268 18 308 68 268 l 536 268 b 647 358 597 268 647 308 l 647 582 b 536 672 647 632 597 672 z m 624 358 b 536 288 624 319 585 288 l 129 288 b 42 358 82 288 42 319 l 42 582 b 129 653 42 621 82 653 l 536 653 b 624 582 585 653 624 621 l 624 358 z m 171 508 l 215 508 l 215 529 l 171 529 l 171 544 l 221 544 l 221 565 l 136 565 l 136 481 l 171 481 l 171 508 z m 268 503 l 278 503 l 296 481 l 333 481 l 311 507 b 331 533 324 513 331 521 b 283 565 331 553 313 565 l 232 565 l 232 481 l 268 481 l 268 503 z m 268 543 l 281 543 b 296 533 290 543 296 540 b 281 524 296 528 290 524 l 268 524 l 268 543 z m 432 503 l 379 503 l 379 514 l 424 514 l 424 535 l 379 535 l 379 544 l 431 544 l 431 565 l 344 565 l 344 481 l 432 481 l 432 503 z m 533 503 l 481 503 l 481 514 l 525 514 l 525 535 l 481 535 l 481 544 l 532 544 l 532 565 l 446 565 l 446 481 l 533 481 l 533 503 z m 156 396 l 142 425 l 119 425 l 146 376 l 165 376 l 192 425 l 171 425 l 156 396 z m 214 394 l 240 394 l 240 407 l 214 407 l 214 413 l 243 413 l 243 425 l 193 425 l 193 376 l 244 376 l 244 389 l 214 389 l 214 394 z m 310 407 b 282 425 310 418 300 425 l 253 425 l 253 376 l 274 376 l 274 389 l 279 389 l 289 376 l 311 376 l 299 392 b 310 407 306 394 310 400 z m 281 401 l 274 401 l 274 413 l 281 413 b 289 407 286 413 289 410 b 281 401 289 403 286 401 z m 336 411 b 343 414 336 413 338 414 b 361 410 349 414 354 413 l 367 422 b 343 426 361 425 351 426 b 315 410 325 426 315 419 b 349 390 315 392 349 396 b 342 388 349 389 347 388 b 321 392 335 388 326 389 l 314 379 b 340 375 321 376 331 375 b 369 392 360 375 369 382 b 336 411 369 410 336 404 z m 375 376 l 396 376 l 396 425 l 375 425 l 375 376 z m 439 426 b 404 400 418 426 404 415 b 439 375 404 386 418 375 b 474 400 458 375 474 386 b 439 426 474 415 458 426 z m 439 388 b 425 400 431 388 425 393 b 439 413 425 408 431 413 b 453 400 446 413 453 408 b 439 388 453 393 446 388 z m 521 403 l 497 425 l 481 425 l 481 376 l 501 376 l 501 399 l 524 376 l 542 376 l 542 425 l 521 425 l 521 403 z "},"":{"ha":663,"x_min":0,"x_max":0,"o":"m 536 672 l 129 672 b 18 582 68 672 18 632 l 18 358 b 129 268 18 308 68 268 l 536 268 b 647 358 597 268 647 308 l 647 582 b 536 672 647 632 597 672 z m 624 358 b 536 288 624 319 585 288 l 129 288 b 42 358 82 288 42 319 l 42 582 b 129 653 42 621 82 653 l 536 653 b 624 582 585 653 624 621 l 624 358 z m 171 508 l 215 508 l 215 529 l 171 529 l 171 544 l 221 544 l 221 565 l 136 565 l 136 481 l 171 481 l 171 508 z m 268 503 l 278 503 l 296 481 l 333 481 l 311 507 b 331 533 324 513 331 521 b 283 565 331 553 313 565 l 232 565 l 232 481 l 268 481 l 268 503 z m 268 543 l 281 543 b 296 533 290 543 296 540 b 281 524 296 528 290 524 l 268 524 l 268 543 z m 432 503 l 379 503 l 379 514 l 424 514 l 424 535 l 379 535 l 379 544 l 431 544 l 431 565 l 344 565 l 344 481 l 432 481 l 432 503 z m 533 503 l 481 503 l 481 514 l 525 514 l 525 535 l 481 535 l 481 544 l 532 544 l 532 565 l 446 565 l 446 481 l 533 481 l 533 503 z m 156 396 l 142 425 l 119 425 l 146 376 l 165 376 l 192 425 l 171 425 l 156 396 z m 214 394 l 240 394 l 240 407 l 214 407 l 214 413 l 243 413 l 243 425 l 193 425 l 193 376 l 244 376 l 244 389 l 214 389 l 214 394 z m 310 407 b 282 425 310 418 300 425 l 253 425 l 253 376 l 274 376 l 274 389 l 279 389 l 289 376 l 311 376 l 299 392 b 310 407 306 394 310 400 z m 281 401 l 274 401 l 274 413 l 281 413 b 289 407 286 413 289 410 b 281 401 289 403 286 401 z m 336 411 b 343 414 336 413 338 414 b 361 410 349 414 354 413 l 367 422 b 343 426 361 425 351 426 b 315 410 325 426 315 419 b 349 390 315 392 349 396 b 342 388 349 389 347 388 b 321 392 335 388 326 389 l 314 379 b 340 375 321 376 331 375 b 369 392 360 375 369 382 b 336 411 369 410 336 404 z m 375 376 l 396 376 l 396 425 l 375 425 l 375 376 z m 439 426 b 404 400 418 426 404 415 b 439 375 404 386 418 375 b 474 400 458 375 474 386 b 439 426 474 415 458 426 z m 439 388 b 425 400 431 388 425 393 b 439 413 425 408 431 413 b 453 400 446 413 453 408 b 439 388 453 393 446 388 z m 521 403 l 497 425 l 481 425 l 481 376 l 501 376 l 501 399 l 524 376 l 542 376 l 542 425 l 521 425 l 521 403 z "},"":{"ha":663,"x_min":0,"x_max":0,"o":"m 536 672 l 129 672 b 18 582 68 672 18 632 l 18 358 b 129 268 18 308 68 268 l 536 268 b 647 358 597 268 647 308 l 647 582 b 536 672 647 632 597 672 z m 624 358 b 536 288 624 319 585 288 l 129 288 b 42 358 82 288 42 319 l 42 582 b 129 653 42 621 82 653 l 536 653 b 624 582 585 653 624 621 l 624 358 z m 171 508 l 215 508 l 215 529 l 171 529 l 171 544 l 221 544 l 221 565 l 136 565 l 136 481 l 171 481 l 171 508 z m 268 503 l 278 503 l 296 481 l 333 481 l 311 507 b 331 533 324 513 331 521 b 283 565 331 553 313 565 l 232 565 l 232 481 l 268 481 l 268 503 z m 268 543 l 281 543 b 296 533 290 543 296 540 b 281 524 296 528 290 524 l 268 524 l 268 543 z m 432 503 l 379 503 l 379 514 l 424 514 l 424 535 l 379 535 l 379 544 l 431 544 l 431 565 l 344 565 l 344 481 l 432 481 l 432 503 z m 533 503 l 481 503 l 481 514 l 525 514 l 525 535 l 481 535 l 481 544 l 532 544 l 532 565 l 446 565 l 446 481 l 533 481 l 533 503 z m 156 396 l 142 425 l 119 425 l 146 376 l 165 376 l 192 425 l 171 425 l 156 396 z m 214 394 l 240 394 l 240 407 l 214 407 l 214 413 l 243 413 l 243 425 l 193 425 l 193 376 l 244 376 l 244 389 l 214 389 l 214 394 z m 310 407 b 282 425 310 418 300 425 l 253 425 l 253 376 l 274 376 l 274 389 l 279 389 l 289 376 l 311 376 l 299 392 b 310 407 306 394 310 400 z m 281 401 l 274 401 l 274 413 l 281 413 b 289 407 286 413 289 410 b 281 401 289 403 286 401 z m 336 411 b 343 414 336 413 338 414 b 361 410 349 414 354 413 l 367 422 b 343 426 361 425 351 426 b 315 410 325 426 315 419 b 349 390 315 392 349 396 b 342 388 349 389 347 388 b 321 392 335 388 326 389 l 314 379 b 340 375 321 376 331 375 b 369 392 360 375 369 382 b 336 411 369 410 336 404 z m 375 376 l 396 376 l 396 425 l 375 425 l 375 376 z m 439 426 b 404 400 418 426 404 415 b 439 375 404 386 418 375 b 474 400 458 375 474 386 b 439 426 474 415 458 426 z m 439 388 b 425 400 431 388 425 393 b 439 413 425 408 431 413 b 453 400 446 413 453 408 b 439 388 453 393 446 388 z m 521 403 l 497 425 l 481 425 l 481 376 l 501 376 l 501 399 l 524 376 l 542 376 l 542 425 l 521 425 l 521 403 z "}}}
